ISO-10303-21;
HEADER;
/*Generated by software containing ST-Developer
 * from STEP Tools, Inc. (www.steptools.com) 
 */
/*OPTION: using custom renumber hook */
/*description */
/*implementation_level */
FILE_DESCRIPTION(('STEP AP242 Edition 2','STEP AP242 Edition 2''CAx-IF Rec.Pracs.---Representation and Presentation of Product Manufa
cturing Information (PMI)---4.0---2014-10-13','STEP AP242 Edition 2''CAx-IF Rec.Pracs.---Representation and Presentation of Product Manufa
cturing Information (PMI)---4.0---2014-10-13''CAx-IF Rec.Pracs.---3D Tessellated Geometry---0.4---2014-09-14','STEP AP242 Edition 2''CAx-IF Rec.Pracs.---Representation and Presentation of Product Manufa
cturing Information (PMI)---4.0---2014-10-13''CAx-IF Rec.Pracs.---3D Tessellated Geometry---0.4---2014-09-14''2;1','STEP AP242 Edition 2''CAx-IF Rec.Pracs.---Representation and Presentation of Product Manufa
cturing Information (PMI)---4.0---2014-10-13''CAx-IF Rec.Pracs.---3D Tessellated Geometry---0.4---2014-09-14''2;1''CAx-IF Rec.Pracs.---User Defined Attributes---1.5---2016-08-15'),'2;1');
/*name */
/*time_stamp */
/*author */
/*organization */
/*preprocessor_version */
/*originating_system */
/*authorisation */
FILE_NAME('/vol/tmp/translate-2483687786421029403/Part Studio 1 - banana-bullet-connector-female.step','2026-02-25T16:48:17',(''),(''),'ST-DEVELOPER v20','ONSHAPE BY PTC INC, 1.211','  ');
FILE_SCHEMA(('AP242_MANAGED_MODEL_BASED_3D_ENGINEERING_MIM_LF { 1 0 10303 442 3 1 4 }'));
ENDSEC;
DATA;
#10=SHAPE_REPRESENTATION_RELATIONSHIP('','',#135,#11);
#11=ADVANCED_BREP_SHAPE_REPRESENTATION('',(#133),#235);
#12=PLANE('',#143);
#13=PLANE('',#145);
#14=PLANE('',#148);
#15=PLANE('',#149);
#16=PLANE('',#156);
#17=PLANE('',#157);
#18=ORIENTED_EDGE('',*,*,#38,.T.);
#19=ORIENTED_EDGE('',*,*,#39,.F.);
#20=ORIENTED_EDGE('',*,*,#40,.F.);
#21=ORIENTED_EDGE('',*,*,#41,.T.);
#22=ORIENTED_EDGE('',*,*,#42,.F.);
#23=ORIENTED_EDGE('',*,*,#40,.T.);
#24=ORIENTED_EDGE('',*,*,#39,.T.);
#25=ORIENTED_EDGE('',*,*,#41,.F.);
#26=ORIENTED_EDGE('',*,*,#43,.F.);
#27=ORIENTED_EDGE('',*,*,#42,.T.);
#28=ORIENTED_EDGE('',*,*,#38,.F.);
#29=ORIENTED_EDGE('',*,*,#44,.F.);
#30=ORIENTED_EDGE('',*,*,#43,.T.);
#31=ORIENTED_EDGE('',*,*,#45,.F.);
#32=ORIENTED_EDGE('',*,*,#44,.T.);
#33=ORIENTED_EDGE('',*,*,#46,.T.);
#34=ORIENTED_EDGE('',*,*,#47,.F.);
#35=ORIENTED_EDGE('',*,*,#45,.T.);
#36=ORIENTED_EDGE('',*,*,#46,.F.);
#37=ORIENTED_EDGE('',*,*,#47,.T.);
#38=EDGE_CURVE('',#48,#48,#58,.T.);
#39=EDGE_CURVE('',#49,#49,#59,.T.);
#40=EDGE_CURVE('',#50,#50,#60,.T.);
#41=EDGE_CURVE('',#51,#51,#61,.T.);
#42=EDGE_CURVE('',#52,#52,#62,.T.);
#43=EDGE_CURVE('',#53,#53,#63,.T.);
#44=EDGE_CURVE('',#54,#54,#64,.T.);
#45=EDGE_CURVE('',#55,#55,#65,.T.);
#46=EDGE_CURVE('',#56,#56,#66,.T.);
#47=EDGE_CURVE('',#57,#57,#67,.T.);
#48=VERTEX_POINT('',#205);
#49=VERTEX_POINT('',#207);
#50=VERTEX_POINT('',#210);
#51=VERTEX_POINT('',#212);
#52=VERTEX_POINT('',#215);
#53=VERTEX_POINT('',#219);
#54=VERTEX_POINT('',#223);
#55=VERTEX_POINT('',#226);
#56=VERTEX_POINT('',#229);
#57=VERTEX_POINT('',#231);
#58=CIRCLE('',#138,0.00205);
#59=CIRCLE('',#139,0.00205);
#60=CIRCLE('',#141,0.0024);
#61=CIRCLE('',#142,0.0024);
#62=CIRCLE('',#144,0.002275);
#63=CIRCLE('',#147,0.002275);
#64=CIRCLE('',#150,0.0024);
#65=CIRCLE('',#152,0.0024);
#66=CIRCLE('',#154,0.0019);
#67=CIRCLE('',#155,0.0019);
#68=EDGE_LOOP('',(#18));
#69=EDGE_LOOP('',(#19));
#70=EDGE_LOOP('',(#20));
#71=EDGE_LOOP('',(#21));
#72=EDGE_LOOP('',(#22));
#73=EDGE_LOOP('',(#23));
#74=EDGE_LOOP('',(#24));
#75=EDGE_LOOP('',(#25));
#76=EDGE_LOOP('',(#26));
#77=EDGE_LOOP('',(#27));
#78=EDGE_LOOP('',(#28));
#79=EDGE_LOOP('',(#29));
#80=EDGE_LOOP('',(#30));
#81=EDGE_LOOP('',(#31));
#82=EDGE_LOOP('',(#32));
#83=EDGE_LOOP('',(#33));
#84=EDGE_LOOP('',(#34));
#85=EDGE_LOOP('',(#35));
#86=EDGE_LOOP('',(#36));
#87=EDGE_LOOP('',(#37));
#88=FACE_BOUND('',#68,.T.);
#89=FACE_BOUND('',#69,.T.);
#90=FACE_BOUND('',#70,.T.);
#91=FACE_BOUND('',#71,.T.);
#92=FACE_BOUND('',#72,.T.);
#93=FACE_BOUND('',#73,.T.);
#94=FACE_BOUND('',#74,.T.);
#95=FACE_BOUND('',#75,.T.);
#96=FACE_BOUND('',#76,.T.);
#97=FACE_BOUND('',#77,.T.);
#98=FACE_BOUND('',#78,.T.);
#99=FACE_BOUND('',#79,.T.);
#100=FACE_BOUND('',#80,.T.);
#101=FACE_BOUND('',#81,.T.);
#102=FACE_BOUND('',#82,.T.);
#103=FACE_BOUND('',#83,.T.);
#104=FACE_BOUND('',#84,.T.);
#105=FACE_BOUND('',#85,.T.);
#106=FACE_BOUND('',#86,.T.);
#107=FACE_BOUND('',#87,.T.);
#108=CYLINDRICAL_SURFACE('',#137,0.00205);
#109=CYLINDRICAL_SURFACE('',#140,0.0024);
#110=CYLINDRICAL_SURFACE('',#146,0.002275);
#111=CYLINDRICAL_SURFACE('',#151,0.0024);
#112=CYLINDRICAL_SURFACE('',#153,0.0019);
#113=ADVANCED_FACE('',(#88,#89),#108,.F.);
#114=ADVANCED_FACE('',(#90,#91),#109,.T.);
#115=ADVANCED_FACE('',(#92,#93),#12,.T.);
#116=ADVANCED_FACE('',(#94,#95),#13,.F.);
#117=ADVANCED_FACE('',(#96,#97),#110,.T.);
#118=ADVANCED_FACE('',(#98),#14,.F.);
#119=ADVANCED_FACE('',(#99,#100),#15,.F.);
#120=ADVANCED_FACE('',(#101,#102),#111,.T.);
#121=ADVANCED_FACE('',(#103,#104),#112,.F.);
#122=ADVANCED_FACE('',(#105,#106),#16,.T.);
#123=ADVANCED_FACE('',(#107),#17,.T.);
#124=CLOSED_SHELL('',(#113,#114,#115,#116,#117,#118,#119,#120,#121,#122,#123));
#125=STYLED_ITEM('',(#126),#133);
#126=PRESENTATION_STYLE_ASSIGNMENT((#127));
#127=SURFACE_STYLE_USAGE(.BOTH.,#128);
#128=SURFACE_SIDE_STYLE('',(#129));
#129=SURFACE_STYLE_FILL_AREA(#130);
#130=FILL_AREA_STYLE('',(#131));
#131=FILL_AREA_STYLE_COLOUR('',#132);
#132=COLOUR_RGB('',0.980392156862745,0.796078431372549,0.262745098039216);
#133=MANIFOLD_SOLID_BREP('banana-bullet-connector-female',#124);
#134=SHAPE_DEFINITION_REPRESENTATION(#240,#135);
#135=SHAPE_REPRESENTATION('banana-bullet-connector-female',(#136),#235);
#136=AXIS2_PLACEMENT_3D('',#202,#158,#159);
#137=AXIS2_PLACEMENT_3D('',#203,#160,#161);
#138=AXIS2_PLACEMENT_3D('',#204,#162,#163);
#139=AXIS2_PLACEMENT_3D('',#206,#164,#165);
#140=AXIS2_PLACEMENT_3D('',#208,#166,#167);
#141=AXIS2_PLACEMENT_3D('',#209,#168,#169);
#142=AXIS2_PLACEMENT_3D('',#211,#170,#171);
#143=AXIS2_PLACEMENT_3D('',#213,#172,#173);
#144=AXIS2_PLACEMENT_3D('',#214,#174,#175);
#145=AXIS2_PLACEMENT_3D('',#216,#176,#177);
#146=AXIS2_PLACEMENT_3D('',#217,#178,#179);
#147=AXIS2_PLACEMENT_3D('',#218,#180,#181);
#148=AXIS2_PLACEMENT_3D('',#220,#182,#183);
#149=AXIS2_PLACEMENT_3D('',#221,#184,#185);
#150=AXIS2_PLACEMENT_3D('',#222,#186,#187);
#151=AXIS2_PLACEMENT_3D('',#224,#188,#189);
#152=AXIS2_PLACEMENT_3D('',#225,#190,#191);
#153=AXIS2_PLACEMENT_3D('',#227,#192,#193);
#154=AXIS2_PLACEMENT_3D('',#228,#194,#195);
#155=AXIS2_PLACEMENT_3D('',#230,#196,#197);
#156=AXIS2_PLACEMENT_3D('',#232,#198,#199);
#157=AXIS2_PLACEMENT_3D('',#233,#200,#201);
#158=DIRECTION('',(0.,0.,1.));
#159=DIRECTION('',(1.,0.,0.));
#160=DIRECTION('',(0.,0.,-1.));
#161=DIRECTION('',(-1.,0.,0.));
#162=DIRECTION('',(0.,0.,1.));
#163=DIRECTION('',(1.,0.,0.));
#164=DIRECTION('',(0.,0.,1.));
#165=DIRECTION('',(1.,0.,0.));
#166=DIRECTION('',(0.,0.,-1.));
#167=DIRECTION('',(-1.,0.,0.));
#168=DIRECTION('',(0.,0.,1.));
#169=DIRECTION('',(1.,0.,0.));
#170=DIRECTION('',(0.,0.,1.));
#171=DIRECTION('',(1.,0.,0.));
#172=DIRECTION('',(0.,0.,1.));
#173=DIRECTION('',(1.,0.,0.));
#174=DIRECTION('',(0.,0.,1.));
#175=DIRECTION('',(1.,0.,0.));
#176=DIRECTION('',(0.,0.,1.));
#177=DIRECTION('',(1.,0.,0.));
#178=DIRECTION('',(0.,0.,-1.));
#179=DIRECTION('',(-1.,0.,0.));
#180=DIRECTION('',(0.,0.,1.));
#181=DIRECTION('',(1.,0.,0.));
#182=DIRECTION('',(0.,0.,1.));
#183=DIRECTION('',(1.,0.,0.));
#184=DIRECTION('',(0.,0.,1.));
#185=DIRECTION('',(1.,0.,0.));
#186=DIRECTION('',(0.,0.,1.));
#187=DIRECTION('',(1.,0.,0.));
#188=DIRECTION('',(0.,0.,-1.));
#189=DIRECTION('',(-1.,0.,0.));
#190=DIRECTION('',(0.,0.,1.));
#191=DIRECTION('',(1.,0.,0.));
#192=DIRECTION('',(0.,0.,-1.));
#193=DIRECTION('',(-1.,0.,0.));
#194=DIRECTION('',(0.,0.,1.));
#195=DIRECTION('',(1.,0.,0.));
#196=DIRECTION('',(0.,0.,1.));
#197=DIRECTION('',(1.,0.,0.));
#198=DIRECTION('',(0.,0.,1.));
#199=DIRECTION('',(1.,0.,0.));
#200=DIRECTION('',(0.,0.,1.));
#201=DIRECTION('',(1.,0.,0.));
#202=CARTESIAN_POINT('',(0.,0.,0.));
#203=CARTESIAN_POINT('',(0.,1.25526296912604E-19,0.016));
#204=CARTESIAN_POINT('',(0.,1.25526296912604E-19,0.016));
#205=CARTESIAN_POINT('',(0.00205,1.25526296912604E-19,0.016));
#206=CARTESIAN_POINT('',(0.,1.25526296912604E-19,0.));
#207=CARTESIAN_POINT('',(0.00205,1.25526296912604E-19,0.));
#208=CARTESIAN_POINT('',(0.,1.46957615897682E-19,0.016));
#209=CARTESIAN_POINT('',(0.,1.46957615897682E-19,0.016));
#210=CARTESIAN_POINT('',(0.0024,1.46957615897682E-19,0.016));
#211=CARTESIAN_POINT('',(0.,1.46957615897682E-19,0.));
#212=CARTESIAN_POINT('',(0.0024,1.46957615897682E-19,0.));
#213=CARTESIAN_POINT('',(0.,0.,0.016));
#214=CARTESIAN_POINT('',(0.,1.39303573403011E-19,0.016));
#215=CARTESIAN_POINT('',(0.002275,1.39303573403011E-19,0.016));
#216=CARTESIAN_POINT('',(0.,0.,0.));
#217=CARTESIAN_POINT('',(0.,1.39303573403011E-19,0.01685));
#218=CARTESIAN_POINT('',(0.,1.39303573403011E-19,0.01685));
#219=CARTESIAN_POINT('',(0.002275,1.39303573403011E-19,0.01685));
#220=CARTESIAN_POINT('',(0.,0.,0.016));
#221=CARTESIAN_POINT('',(0.,0.,0.01685));
#222=CARTESIAN_POINT('',(0.,2.93915231795364E-19,0.01685));
#223=CARTESIAN_POINT('',(0.0024,2.93915231795364E-19,0.01685));
#224=CARTESIAN_POINT('',(0.,2.93915231795364E-19,0.02));
#225=CARTESIAN_POINT('',(0.,2.93915231795364E-19,0.02));
#226=CARTESIAN_POINT('',(0.0024,2.93915231795364E-19,0.02));
#227=CARTESIAN_POINT('',(0.,2.63299061816681E-19,0.02));
#228=CARTESIAN_POINT('',(0.,2.63299061816681E-19,0.02));
#229=CARTESIAN_POINT('',(0.0019,2.63299061816681E-19,0.02));
#230=CARTESIAN_POINT('',(0.,2.63299061816681E-19,0.01685));
#231=CARTESIAN_POINT('',(0.0019,2.63299061816681E-19,0.01685));
#232=CARTESIAN_POINT('',(0.,0.,0.02));
#233=CARTESIAN_POINT('',(0.,0.,0.01685));
#234=MECHANICAL_DESIGN_GEOMETRIC_PRESENTATION_REPRESENTATION('',(#125),#235);
#235=(
GEOMETRIC_REPRESENTATION_CONTEXT(3)
GLOBAL_UNCERTAINTY_ASSIGNED_CONTEXT((#236))
GLOBAL_UNIT_ASSIGNED_CONTEXT((#239,#238,#237))
REPRESENTATION_CONTEXT('banana-bullet-connector-female','TOP_LEVEL_ASSEMBLY_PART')
);
#236=UNCERTAINTY_MEASURE_WITH_UNIT(LENGTH_MEASURE(1.E-08),#239,'DISTANCE_ACCURACY_VALUE','Maximum Tolerance applied to model');
#237=(
NAMED_UNIT(*)
SI_UNIT($,.STERADIAN.)
SOLID_ANGLE_UNIT()
);
#238=(
NAMED_UNIT(*)
PLANE_ANGLE_UNIT()
SI_UNIT($,.RADIAN.)
);
#239=(
LENGTH_UNIT()
NAMED_UNIT(*)
SI_UNIT($,.METRE.)
);
#240=PRODUCT_DEFINITION_SHAPE('','',#241);
#241=PRODUCT_DEFINITION('','',#243,#242);
#242=PRODUCT_DEFINITION_CONTEXT('',#249,'design');
#243=PRODUCT_DEFINITION_FORMATION_WITH_SPECIFIED_SOURCE('','',#245,.NOT_KNOWN.);
#244=PRODUCT_RELATED_PRODUCT_CATEGORY('','',(#245));
#245=PRODUCT('banana-bullet-connector-female','banana-bullet-connector-female','banana-bullet-connector-female',(#247));
#246=PRODUCT_CATEGORY('','');
#247=PRODUCT_CONTEXT('',#249,'mechanical');
#248=APPLICATION_PROTOCOL_DEFINITION('international standard','ap242_managed_model_based_3d_engineering',2020,#249);
#249=APPLICATION_CONTEXT('managed model based 3d engineering');
ENDSEC;
END-ISO-10303-21;
