ISO-10303-21;
HEADER;
FILE_DESCRIPTION((''),'2;1');
FILE_NAME('C-5-146285-3','2017-06-28T',('workeradm'),('Tyco Electronics Ltd.'),
'CREO PARAMETRIC BY PTC INC, 2016050','CREO PARAMETRIC BY PTC INC, 2016050','');
FILE_SCHEMA(('AUTOMOTIVE_DESIGN { 1 0 10303 214 1 1 1 1 }'));
ENDSEC;
DATA;
#2=DIRECTION('',(-1.E0,0.E0,0.E0));
#3=VECTOR('',#2,6.223E-1);
#4=CARTESIAN_POINT('',(-2.22885E0,-3.1115E-1,0.E0));
#5=LINE('',#4,#3);
#6=DIRECTION('',(0.E0,1.E0,0.E0));
#7=VECTOR('',#6,6.223E-1);
#8=CARTESIAN_POINT('',(-2.22885E0,-3.1115E-1,0.E0));
#9=LINE('',#8,#7);
#10=DIRECTION('',(-1.E0,0.E0,0.E0));
#11=VECTOR('',#10,6.223E-1);
#12=CARTESIAN_POINT('',(-2.22885E0,3.1115E-1,0.E0));
#13=LINE('',#12,#11);
#14=DIRECTION('',(0.E0,1.E0,0.E0));
#15=VECTOR('',#14,6.223E-1);
#16=CARTESIAN_POINT('',(-2.85115E0,-3.1115E-1,0.E0));
#17=LINE('',#16,#15);
#18=DIRECTION('',(-1.E0,0.E0,0.E0));
#19=VECTOR('',#18,6.223E-1);
#20=CARTESIAN_POINT('',(3.1115E-1,-3.1115E-1,0.E0));
#21=LINE('',#20,#19);
#22=DIRECTION('',(0.E0,1.E0,0.E0));
#23=VECTOR('',#22,6.223E-1);
#24=CARTESIAN_POINT('',(3.1115E-1,-3.1115E-1,0.E0));
#25=LINE('',#24,#23);
#26=DIRECTION('',(-1.E0,0.E0,0.E0));
#27=VECTOR('',#26,6.223E-1);
#28=CARTESIAN_POINT('',(3.1115E-1,3.1115E-1,0.E0));
#29=LINE('',#28,#27);
#30=DIRECTION('',(0.E0,1.E0,0.E0));
#31=VECTOR('',#30,6.223E-1);
#32=CARTESIAN_POINT('',(-3.1115E-1,-3.1115E-1,0.E0));
#33=LINE('',#32,#31);
#34=DIRECTION('',(-1.E0,0.E0,0.E0));
#35=VECTOR('',#34,6.223E-1);
#36=CARTESIAN_POINT('',(2.85115E0,-3.1115E-1,0.E0));
#37=LINE('',#36,#35);
#38=DIRECTION('',(0.E0,1.E0,0.E0));
#39=VECTOR('',#38,6.223E-1);
#40=CARTESIAN_POINT('',(2.85115E0,-3.1115E-1,0.E0));
#41=LINE('',#40,#39);
#42=DIRECTION('',(-1.E0,0.E0,0.E0));
#43=VECTOR('',#42,6.223E-1);
#44=CARTESIAN_POINT('',(2.85115E0,3.1115E-1,0.E0));
#45=LINE('',#44,#43);
#46=DIRECTION('',(0.E0,1.E0,0.E0));
#47=VECTOR('',#46,6.223E-1);
#48=CARTESIAN_POINT('',(2.22885E0,-3.1115E-1,0.E0));
#49=LINE('',#48,#47);
#50=DIRECTION('',(4.999999999999E-1,-8.660254037845E-1,0.E0));
#51=VECTOR('',#50,4.106115114476E-1);
#52=CARTESIAN_POINT('',(1.064694244276E0,1.1684E0,0.E0));
#53=LINE('',#52,#51);
#54=DIRECTION('',(4.999999999999E-1,8.660254037845E-1,0.E0));
#55=VECTOR('',#54,4.106115114476E-1);
#56=CARTESIAN_POINT('',(1.27E0,8.128E-1,0.E0));
#57=LINE('',#56,#55);
#58=DIRECTION('',(-1.E0,0.E0,0.E0));
#59=VECTOR('',#58,2.131494244276E0);
#60=CARTESIAN_POINT('',(3.6068E0,1.1684E0,0.E0));
#61=LINE('',#60,#59);
#62=DIRECTION('',(0.E0,1.E0,0.E0));
#63=VECTOR('',#62,2.3368E0);
#64=CARTESIAN_POINT('',(3.6068E0,-1.1684E0,0.E0));
#65=LINE('',#64,#63);
#66=DIRECTION('',(1.E0,0.E0,0.E0));
#67=VECTOR('',#66,2.131494244276E0);
#68=CARTESIAN_POINT('',(1.475305755724E0,-1.1684E0,0.E0));
#69=LINE('',#68,#67);
#70=DIRECTION('',(-4.999999999999E-1,8.660254037845E-1,0.E0));
#71=VECTOR('',#70,4.106115114476E-1);
#72=CARTESIAN_POINT('',(1.475305755724E0,-1.1684E0,0.E0));
#73=LINE('',#72,#71);
#74=DIRECTION('',(-4.999999999999E-1,-8.660254037845E-1,0.E0));
#75=VECTOR('',#74,4.106115114476E-1);
#76=CARTESIAN_POINT('',(1.27E0,-8.128E-1,0.E0));
#77=LINE('',#76,#75);
#78=DIRECTION('',(1.E0,0.E0,0.E0));
#79=VECTOR('',#78,2.129388488552E0);
#80=CARTESIAN_POINT('',(-1.064694244276E0,-1.1684E0,0.E0));
#81=LINE('',#80,#79);
#82=DIRECTION('',(-4.999999999999E-1,8.660254037845E-1,0.E0));
#83=VECTOR('',#82,4.106115114476E-1);
#84=CARTESIAN_POINT('',(-1.064694244276E0,-1.1684E0,0.E0));
#85=LINE('',#84,#83);
#86=DIRECTION('',(-4.999999999999E-1,-8.660254037845E-1,0.E0));
#87=VECTOR('',#86,4.106115114476E-1);
#88=CARTESIAN_POINT('',(-1.27E0,-8.128E-1,0.E0));
#89=LINE('',#88,#87);
#90=DIRECTION('',(1.E0,0.E0,0.E0));
#91=VECTOR('',#90,2.131494244276E0);
#92=CARTESIAN_POINT('',(-3.6068E0,-1.1684E0,0.E0));
#93=LINE('',#92,#91);
#94=DIRECTION('',(0.E0,-1.E0,0.E0));
#95=VECTOR('',#94,2.3368E0);
#96=CARTESIAN_POINT('',(-3.6068E0,1.1684E0,0.E0));
#97=LINE('',#96,#95);
#98=DIRECTION('',(-1.E0,0.E0,0.E0));
#99=VECTOR('',#98,2.131494244276E0);
#100=CARTESIAN_POINT('',(-1.475305755724E0,1.1684E0,0.E0));
#101=LINE('',#100,#99);
#102=DIRECTION('',(4.999999999999E-1,-8.660254037845E-1,0.E0));
#103=VECTOR('',#102,4.106115114476E-1);
#104=CARTESIAN_POINT('',(-1.475305755724E0,1.1684E0,0.E0));
#105=LINE('',#104,#103);
#106=DIRECTION('',(4.999999999999E-1,8.660254037845E-1,0.E0));
#107=VECTOR('',#106,4.106115114476E-1);
#108=CARTESIAN_POINT('',(-1.27E0,8.128E-1,0.E0));
#109=LINE('',#108,#107);
#110=DIRECTION('',(-1.E0,0.E0,0.E0));
#111=VECTOR('',#110,2.129388488552E0);
#112=CARTESIAN_POINT('',(1.064694244276E0,1.1684E0,0.E0));
#113=LINE('',#112,#111);
#114=DIRECTION('',(0.E0,0.E0,1.E0));
#115=VECTOR('',#114,5.84E0);
#116=CARTESIAN_POINT('',(-2.85115E0,-3.1115E-1,0.E0));
#117=LINE('',#116,#115);
#118=DIRECTION('',(1.E0,0.E0,0.E0));
#119=VECTOR('',#118,6.223E-1);
#120=CARTESIAN_POINT('',(-2.85115E0,-3.1115E-1,5.84E0));
#121=LINE('',#120,#119);
#122=DIRECTION('',(0.E0,0.E0,-1.E0));
#123=VECTOR('',#122,5.84E0);
#124=CARTESIAN_POINT('',(-2.22885E0,-3.1115E-1,5.84E0));
#125=LINE('',#124,#123);
#126=DIRECTION('',(0.E0,0.E0,-1.E0));
#127=VECTOR('',#126,2.925E0);
#128=CARTESIAN_POINT('',(-2.22885E0,-3.1115E-1,-1.651E0));
#129=LINE('',#128,#127);
#130=DIRECTION('',(-1.E0,0.E0,0.E0));
#131=VECTOR('',#130,6.223E-1);
#132=CARTESIAN_POINT('',(-2.22885E0,-3.1115E-1,-4.576E0));
#133=LINE('',#132,#131);
#134=DIRECTION('',(0.E0,0.E0,1.E0));
#135=VECTOR('',#134,2.925E0);
#136=CARTESIAN_POINT('',(-2.85115E0,-3.1115E-1,-4.576E0));
#137=LINE('',#136,#135);
#138=DIRECTION('',(0.E0,0.E0,-1.E0));
#139=VECTOR('',#138,5.84E0);
#140=CARTESIAN_POINT('',(-2.22885E0,3.1115E-1,5.84E0));
#141=LINE('',#140,#139);
#142=DIRECTION('',(1.E0,0.E0,0.E0));
#143=VECTOR('',#142,6.223E-1);
#144=CARTESIAN_POINT('',(-2.85115E0,3.1115E-1,5.84E0));
#145=LINE('',#144,#143);
#146=DIRECTION('',(0.E0,0.E0,1.E0));
#147=VECTOR('',#146,5.84E0);
#148=CARTESIAN_POINT('',(-2.85115E0,3.1115E-1,0.E0));
#149=LINE('',#148,#147);
#150=DIRECTION('',(0.E0,0.E0,1.E0));
#151=VECTOR('',#150,2.925E0);
#152=CARTESIAN_POINT('',(-2.85115E0,3.1115E-1,-4.576E0));
#153=LINE('',#152,#151);
#154=DIRECTION('',(-1.E0,0.E0,0.E0));
#155=VECTOR('',#154,6.223E-1);
#156=CARTESIAN_POINT('',(-2.22885E0,3.1115E-1,-4.576E0));
#157=LINE('',#156,#155);
#158=DIRECTION('',(0.E0,0.E0,-1.E0));
#159=VECTOR('',#158,2.925E0);
#160=CARTESIAN_POINT('',(-2.22885E0,3.1115E-1,-1.651E0));
#161=LINE('',#160,#159);
#162=DIRECTION('',(0.E0,1.E0,0.E0));
#163=VECTOR('',#162,6.223E-1);
#164=CARTESIAN_POINT('',(-2.22885E0,-3.1115E-1,5.84E0));
#165=LINE('',#164,#163);
#166=DIRECTION('',(0.E0,1.E0,0.E0));
#167=VECTOR('',#166,6.223E-1);
#168=CARTESIAN_POINT('',(-2.85115E0,-3.1115E-1,5.84E0));
#169=LINE('',#168,#167);
#170=DIRECTION('',(0.E0,-1.E0,0.E0));
#171=VECTOR('',#170,2.3368E0);
#172=CARTESIAN_POINT('',(-3.048E0,1.1684E0,-1.651E0));
#173=LINE('',#172,#171);
#174=DIRECTION('',(-1.E0,0.E0,0.E0));
#175=VECTOR('',#174,6.223E-1);
#176=CARTESIAN_POINT('',(-2.22885E0,-3.1115E-1,-1.651E0));
#177=LINE('',#176,#175);
#178=DIRECTION('',(0.E0,1.E0,0.E0));
#179=VECTOR('',#178,6.223E-1);
#180=CARTESIAN_POINT('',(-2.85115E0,-3.1115E-1,-1.651E0));
#181=LINE('',#180,#179);
#182=DIRECTION('',(-1.E0,0.E0,0.E0));
#183=VECTOR('',#182,6.223E-1);
#184=CARTESIAN_POINT('',(-2.22885E0,3.1115E-1,-1.651E0));
#185=LINE('',#184,#183);
#186=DIRECTION('',(0.E0,1.E0,0.E0));
#187=VECTOR('',#186,6.223E-1);
#188=CARTESIAN_POINT('',(-2.22885E0,-3.1115E-1,-1.651E0));
#189=LINE('',#188,#187);
#190=DIRECTION('',(0.E0,0.E0,1.E0));
#191=VECTOR('',#190,2.286E0);
#192=CARTESIAN_POINT('',(-1.475305755724E0,-1.1684E0,-2.286E0));
#193=LINE('',#192,#191);
#194=DIRECTION('',(0.E0,0.E0,1.E0));
#195=VECTOR('',#194,6.35E-1);
#196=CARTESIAN_POINT('',(-2.032E0,-1.1684E0,-2.286E0));
#197=LINE('',#196,#195);
#198=DIRECTION('',(-1.E0,0.E0,0.E0));
#199=VECTOR('',#198,1.016E0);
#200=CARTESIAN_POINT('',(-2.032E0,-1.1684E0,-1.651E0));
#201=LINE('',#200,#199);
#202=DIRECTION('',(0.E0,0.E0,1.E0));
#203=VECTOR('',#202,6.35E-1);
#204=CARTESIAN_POINT('',(-3.048E0,-1.1684E0,-2.286E0));
#205=LINE('',#204,#203);
#206=DIRECTION('',(0.E0,0.E0,-1.E0));
#207=VECTOR('',#206,2.286E0);
#208=CARTESIAN_POINT('',(-3.6068E0,-1.1684E0,0.E0));
#209=LINE('',#208,#207);
#210=DIRECTION('',(0.E0,0.E0,1.E0));
#211=VECTOR('',#210,2.286E0);
#212=CARTESIAN_POINT('',(1.064694244276E0,-1.1684E0,-2.286E0));
#213=LINE('',#212,#211);
#214=DIRECTION('',(0.E0,0.E0,1.E0));
#215=VECTOR('',#214,6.35E-1);
#216=CARTESIAN_POINT('',(5.08E-1,-1.1684E0,-2.286E0));
#217=LINE('',#216,#215);
#218=DIRECTION('',(1.E0,0.E0,0.E0));
#219=VECTOR('',#218,1.016E0);
#220=CARTESIAN_POINT('',(-5.08E-1,-1.1684E0,-1.651E0));
#221=LINE('',#220,#219);
#222=DIRECTION('',(0.E0,0.E0,1.E0));
#223=VECTOR('',#222,6.35E-1);
#224=CARTESIAN_POINT('',(-5.08E-1,-1.1684E0,-2.286E0));
#225=LINE('',#224,#223);
#226=DIRECTION('',(0.E0,0.E0,1.E0));
#227=VECTOR('',#226,2.286E0);
#228=CARTESIAN_POINT('',(-1.064694244276E0,-1.1684E0,-2.286E0));
#229=LINE('',#228,#227);
#230=DIRECTION('',(0.E0,0.E0,1.E0));
#231=VECTOR('',#230,2.286E0);
#232=CARTESIAN_POINT('',(1.475305755724E0,-1.1684E0,-2.286E0));
#233=LINE('',#232,#231);
#234=DIRECTION('',(0.E0,0.E0,1.E0));
#235=VECTOR('',#234,6.35E-1);
#236=CARTESIAN_POINT('',(3.048E0,-1.1684E0,-2.286E0));
#237=LINE('',#236,#235);
#238=DIRECTION('',(1.E0,0.E0,0.E0));
#239=VECTOR('',#238,1.016E0);
#240=CARTESIAN_POINT('',(2.032E0,-1.1684E0,-1.651E0));
#241=LINE('',#240,#239);
#242=DIRECTION('',(0.E0,0.E0,1.E0));
#243=VECTOR('',#242,6.35E-1);
#244=CARTESIAN_POINT('',(2.032E0,-1.1684E0,-2.286E0));
#245=LINE('',#244,#243);
#246=DIRECTION('',(0.E0,0.E0,-1.E0));
#247=VECTOR('',#246,2.286E0);
#248=CARTESIAN_POINT('',(-1.27E0,-8.128E-1,0.E0));
#249=LINE('',#248,#247);
#250=DIRECTION('',(1.E0,0.E0,0.E0));
#251=VECTOR('',#250,5.588E-1);
#252=CARTESIAN_POINT('',(-3.6068E0,-1.1684E0,-2.286E0));
#253=LINE('',#252,#251);
#254=DIRECTION('',(0.E0,1.E0,0.E0));
#255=VECTOR('',#254,2.3368E0);
#256=CARTESIAN_POINT('',(-3.048E0,-1.1684E0,-2.286E0));
#257=LINE('',#256,#255);
#258=DIRECTION('',(-1.E0,0.E0,0.E0));
#259=VECTOR('',#258,5.588E-1);
#260=CARTESIAN_POINT('',(-3.048E0,1.1684E0,-2.286E0));
#261=LINE('',#260,#259);
#262=DIRECTION('',(0.E0,-1.E0,0.E0));
#263=VECTOR('',#262,2.3368E0);
#264=CARTESIAN_POINT('',(-3.6068E0,1.1684E0,-2.286E0));
#265=LINE('',#264,#263);
#266=DIRECTION('',(0.E0,1.E0,0.E0));
#267=VECTOR('',#266,2.3368E0);
#268=CARTESIAN_POINT('',(3.048E0,-1.1684E0,-2.286E0));
#269=LINE('',#268,#267);
#270=DIRECTION('',(1.E0,0.E0,0.E0));
#271=VECTOR('',#270,5.588E-1);
#272=CARTESIAN_POINT('',(3.048E0,-1.1684E0,-2.286E0));
#273=LINE('',#272,#271);
#274=DIRECTION('',(0.E0,1.E0,0.E0));
#275=VECTOR('',#274,2.3368E0);
#276=CARTESIAN_POINT('',(3.6068E0,-1.1684E0,-2.286E0));
#277=LINE('',#276,#275);
#278=DIRECTION('',(-1.E0,0.E0,0.E0));
#279=VECTOR('',#278,5.588E-1);
#280=CARTESIAN_POINT('',(3.6068E0,1.1684E0,-2.286E0));
#281=LINE('',#280,#279);
#282=DIRECTION('',(4.999999999999E-1,-8.660254037845E-1,0.E0));
#283=VECTOR('',#282,4.106115114476E-1);
#284=CARTESIAN_POINT('',(-1.475305755724E0,1.1684E0,-2.286E0));
#285=LINE('',#284,#283);
#286=DIRECTION('',(-1.E0,0.E0,0.E0));
#287=VECTOR('',#286,5.566942442762E-1);
#288=CARTESIAN_POINT('',(-1.475305755724E0,1.1684E0,-2.286E0));
#289=LINE('',#288,#287);
#290=DIRECTION('',(0.E0,1.E0,0.E0));
#291=VECTOR('',#290,2.3368E0);
#292=CARTESIAN_POINT('',(-2.032E0,-1.1684E0,-2.286E0));
#293=LINE('',#292,#291);
#294=DIRECTION('',(1.E0,0.E0,0.E0));
#295=VECTOR('',#294,5.566942442762E-1);
#296=CARTESIAN_POINT('',(-2.032E0,-1.1684E0,-2.286E0));
#297=LINE('',#296,#295);
#298=DIRECTION('',(-4.999999999999E-1,-8.660254037845E-1,0.E0));
#299=VECTOR('',#298,4.106115114476E-1);
#300=CARTESIAN_POINT('',(-1.27E0,-8.128E-1,-2.286E0));
#301=LINE('',#300,#299);
#302=DIRECTION('',(-4.999999999999E-1,8.660254037845E-1,0.E0));
#303=VECTOR('',#302,4.106115114476E-1);
#304=CARTESIAN_POINT('',(-1.064694244276E0,-1.1684E0,-2.286E0));
#305=LINE('',#304,#303);
#306=DIRECTION('',(1.E0,0.E0,0.E0));
#307=VECTOR('',#306,5.566942442762E-1);
#308=CARTESIAN_POINT('',(-1.064694244276E0,-1.1684E0,-2.286E0));
#309=LINE('',#308,#307);
#310=DIRECTION('',(0.E0,1.E0,0.E0));
#311=VECTOR('',#310,2.3368E0);
#312=CARTESIAN_POINT('',(-5.08E-1,-1.1684E0,-2.286E0));
#313=LINE('',#312,#311);
#314=DIRECTION('',(-1.E0,0.E0,0.E0));
#315=VECTOR('',#314,5.566942442762E-1);
#316=CARTESIAN_POINT('',(-5.08E-1,1.1684E0,-2.286E0));
#317=LINE('',#316,#315);
#318=DIRECTION('',(4.999999999999E-1,8.660254037845E-1,0.E0));
#319=VECTOR('',#318,4.106115114476E-1);
#320=CARTESIAN_POINT('',(-1.27E0,8.128E-1,-2.286E0));
#321=LINE('',#320,#319);
#322=DIRECTION('',(4.999999999999E-1,-8.660254037845E-1,0.E0));
#323=VECTOR('',#322,4.106115114476E-1);
#324=CARTESIAN_POINT('',(1.064694244276E0,1.1684E0,-2.286E0));
#325=LINE('',#324,#323);
#326=DIRECTION('',(-1.E0,0.E0,0.E0));
#327=VECTOR('',#326,5.566942442762E-1);
#328=CARTESIAN_POINT('',(1.064694244276E0,1.1684E0,-2.286E0));
#329=LINE('',#328,#327);
#330=DIRECTION('',(0.E0,1.E0,0.E0));
#331=VECTOR('',#330,2.3368E0);
#332=CARTESIAN_POINT('',(5.08E-1,-1.1684E0,-2.286E0));
#333=LINE('',#332,#331);
#334=DIRECTION('',(1.E0,0.E0,0.E0));
#335=VECTOR('',#334,5.566942442762E-1);
#336=CARTESIAN_POINT('',(5.08E-1,-1.1684E0,-2.286E0));
#337=LINE('',#336,#335);
#338=DIRECTION('',(-4.999999999999E-1,-8.660254037845E-1,0.E0));
#339=VECTOR('',#338,4.106115114476E-1);
#340=CARTESIAN_POINT('',(1.27E0,-8.128E-1,-2.286E0));
#341=LINE('',#340,#339);
#342=DIRECTION('',(-4.999999999999E-1,8.660254037845E-1,0.E0));
#343=VECTOR('',#342,4.106115114476E-1);
#344=CARTESIAN_POINT('',(1.475305755724E0,-1.1684E0,-2.286E0));
#345=LINE('',#344,#343);
#346=DIRECTION('',(1.E0,0.E0,0.E0));
#347=VECTOR('',#346,5.566942442762E-1);
#348=CARTESIAN_POINT('',(1.475305755724E0,-1.1684E0,-2.286E0));
#349=LINE('',#348,#347);
#350=DIRECTION('',(0.E0,1.E0,0.E0));
#351=VECTOR('',#350,2.3368E0);
#352=CARTESIAN_POINT('',(2.032E0,-1.1684E0,-2.286E0));
#353=LINE('',#352,#351);
#354=DIRECTION('',(-1.E0,0.E0,0.E0));
#355=VECTOR('',#354,5.566942442762E-1);
#356=CARTESIAN_POINT('',(2.032E0,1.1684E0,-2.286E0));
#357=LINE('',#356,#355);
#358=DIRECTION('',(4.999999999999E-1,8.660254037845E-1,0.E0));
#359=VECTOR('',#358,4.106115114476E-1);
#360=CARTESIAN_POINT('',(1.27E0,8.128E-1,-2.286E0));
#361=LINE('',#360,#359);
#362=DIRECTION('',(0.E0,0.E0,1.E0));
#363=VECTOR('',#362,2.286E0);
#364=CARTESIAN_POINT('',(-1.475305755724E0,1.1684E0,-2.286E0));
#365=LINE('',#364,#363);
#366=DIRECTION('',(0.E0,0.E0,1.E0));
#367=VECTOR('',#366,6.35E-1);
#368=CARTESIAN_POINT('',(-3.048E0,1.1684E0,-2.286E0));
#369=LINE('',#368,#367);
#370=DIRECTION('',(-1.E0,0.E0,0.E0));
#371=VECTOR('',#370,1.016E0);
#372=CARTESIAN_POINT('',(-2.032E0,1.1684E0,-1.651E0));
#373=LINE('',#372,#371);
#374=DIRECTION('',(0.E0,0.E0,1.E0));
#375=VECTOR('',#374,6.35E-1);
#376=CARTESIAN_POINT('',(-2.032E0,1.1684E0,-2.286E0));
#377=LINE('',#376,#375);
#378=DIRECTION('',(0.E0,0.E0,1.E0));
#379=VECTOR('',#378,2.286E0);
#380=CARTESIAN_POINT('',(1.064694244276E0,1.1684E0,-2.286E0));
#381=LINE('',#380,#379);
#382=DIRECTION('',(0.E0,0.E0,1.E0));
#383=VECTOR('',#382,2.286E0);
#384=CARTESIAN_POINT('',(-1.064694244276E0,1.1684E0,-2.286E0));
#385=LINE('',#384,#383);
#386=DIRECTION('',(0.E0,0.E0,1.E0));
#387=VECTOR('',#386,6.35E-1);
#388=CARTESIAN_POINT('',(-5.08E-1,1.1684E0,-2.286E0));
#389=LINE('',#388,#387);
#390=DIRECTION('',(-1.E0,0.E0,0.E0));
#391=VECTOR('',#390,1.016E0);
#392=CARTESIAN_POINT('',(5.08E-1,1.1684E0,-1.651E0));
#393=LINE('',#392,#391);
#394=DIRECTION('',(0.E0,0.E0,1.E0));
#395=VECTOR('',#394,6.35E-1);
#396=CARTESIAN_POINT('',(5.08E-1,1.1684E0,-2.286E0));
#397=LINE('',#396,#395);
#398=DIRECTION('',(0.E0,0.E0,1.E0));
#399=VECTOR('',#398,2.286E0);
#400=CARTESIAN_POINT('',(1.475305755724E0,1.1684E0,-2.286E0));
#401=LINE('',#400,#399);
#402=DIRECTION('',(0.E0,0.E0,1.E0));
#403=VECTOR('',#402,6.35E-1);
#404=CARTESIAN_POINT('',(2.032E0,1.1684E0,-2.286E0));
#405=LINE('',#404,#403);
#406=DIRECTION('',(-1.E0,0.E0,0.E0));
#407=VECTOR('',#406,1.016E0);
#408=CARTESIAN_POINT('',(3.048E0,1.1684E0,-1.651E0));
#409=LINE('',#408,#407);
#410=DIRECTION('',(0.E0,0.E0,1.E0));
#411=VECTOR('',#410,6.35E-1);
#412=CARTESIAN_POINT('',(3.048E0,1.1684E0,-2.286E0));
#413=LINE('',#412,#411);
#414=DIRECTION('',(0.E0,0.E0,-1.E0));
#415=VECTOR('',#414,2.286E0);
#416=CARTESIAN_POINT('',(3.6068E0,1.1684E0,0.E0));
#417=LINE('',#416,#415);
#418=DIRECTION('',(0.E0,0.E0,-1.E0));
#419=VECTOR('',#418,2.286E0);
#420=CARTESIAN_POINT('',(-1.27E0,8.128E-1,0.E0));
#421=LINE('',#420,#419);
#422=DIRECTION('',(0.E0,0.E0,-1.E0));
#423=VECTOR('',#422,2.286E0);
#424=CARTESIAN_POINT('',(-3.6068E0,1.1684E0,0.E0));
#425=LINE('',#424,#423);
#426=DIRECTION('',(0.E0,-1.E0,0.E0));
#427=VECTOR('',#426,2.3368E0);
#428=CARTESIAN_POINT('',(-2.032E0,1.1684E0,-1.651E0));
#429=LINE('',#428,#427);
#430=DIRECTION('',(0.E0,0.E0,-1.E0));
#431=VECTOR('',#430,2.286E0);
#432=CARTESIAN_POINT('',(1.27E0,8.128E-1,0.E0));
#433=LINE('',#432,#431);
#434=DIRECTION('',(0.E0,-1.E0,0.E0));
#435=VECTOR('',#434,2.3368E0);
#436=CARTESIAN_POINT('',(-5.08E-1,1.1684E0,-1.651E0));
#437=LINE('',#436,#435);
#438=DIRECTION('',(-1.E0,0.E0,0.E0));
#439=VECTOR('',#438,6.223E-1);
#440=CARTESIAN_POINT('',(3.1115E-1,-3.1115E-1,-1.651E0));
#441=LINE('',#440,#439);
#442=DIRECTION('',(0.E0,1.E0,0.E0));
#443=VECTOR('',#442,6.223E-1);
#444=CARTESIAN_POINT('',(-3.1115E-1,-3.1115E-1,-1.651E0));
#445=LINE('',#444,#443);
#446=DIRECTION('',(-1.E0,0.E0,0.E0));
#447=VECTOR('',#446,6.223E-1);
#448=CARTESIAN_POINT('',(3.1115E-1,3.1115E-1,-1.651E0));
#449=LINE('',#448,#447);
#450=DIRECTION('',(0.E0,1.E0,0.E0));
#451=VECTOR('',#450,6.223E-1);
#452=CARTESIAN_POINT('',(3.1115E-1,-3.1115E-1,-1.651E0));
#453=LINE('',#452,#451);
#454=DIRECTION('',(0.E0,-1.E0,0.E0));
#455=VECTOR('',#454,2.3368E0);
#456=CARTESIAN_POINT('',(5.08E-1,1.1684E0,-1.651E0));
#457=LINE('',#456,#455);
#458=DIRECTION('',(0.E0,0.E0,-1.E0));
#459=VECTOR('',#458,5.84E0);
#460=CARTESIAN_POINT('',(3.1115E-1,-3.1115E-1,5.84E0));
#461=LINE('',#460,#459);
#462=DIRECTION('',(0.E0,0.E0,1.E0));
#463=VECTOR('',#462,5.84E0);
#464=CARTESIAN_POINT('',(-3.1115E-1,-3.1115E-1,0.E0));
#465=LINE('',#464,#463);
#466=DIRECTION('',(1.E0,0.E0,0.E0));
#467=VECTOR('',#466,6.223E-1);
#468=CARTESIAN_POINT('',(-3.1115E-1,-3.1115E-1,5.84E0));
#469=LINE('',#468,#467);
#470=DIRECTION('',(0.E0,0.E0,-1.E0));
#471=VECTOR('',#470,2.925E0);
#472=CARTESIAN_POINT('',(3.1115E-1,-3.1115E-1,-1.651E0));
#473=LINE('',#472,#471);
#474=DIRECTION('',(-1.E0,0.E0,0.E0));
#475=VECTOR('',#474,6.223E-1);
#476=CARTESIAN_POINT('',(3.1115E-1,-3.1115E-1,-4.576E0));
#477=LINE('',#476,#475);
#478=DIRECTION('',(0.E0,0.E0,1.E0));
#479=VECTOR('',#478,2.925E0);
#480=CARTESIAN_POINT('',(-3.1115E-1,-3.1115E-1,-4.576E0));
#481=LINE('',#480,#479);
#482=DIRECTION('',(0.E0,1.E0,0.E0));
#483=VECTOR('',#482,6.223E-1);
#484=CARTESIAN_POINT('',(3.1115E-1,-3.1115E-1,5.84E0));
#485=LINE('',#484,#483);
#486=DIRECTION('',(0.E0,1.E0,0.E0));
#487=VECTOR('',#486,6.223E-1);
#488=CARTESIAN_POINT('',(-3.1115E-1,-3.1115E-1,5.84E0));
#489=LINE('',#488,#487);
#490=DIRECTION('',(0.E0,0.E0,-1.E0));
#491=VECTOR('',#490,5.84E0);
#492=CARTESIAN_POINT('',(3.1115E-1,3.1115E-1,5.84E0));
#493=LINE('',#492,#491);
#494=DIRECTION('',(1.E0,0.E0,0.E0));
#495=VECTOR('',#494,6.223E-1);
#496=CARTESIAN_POINT('',(-3.1115E-1,3.1115E-1,5.84E0));
#497=LINE('',#496,#495);
#498=DIRECTION('',(0.E0,0.E0,1.E0));
#499=VECTOR('',#498,5.84E0);
#500=CARTESIAN_POINT('',(-3.1115E-1,3.1115E-1,0.E0));
#501=LINE('',#500,#499);
#502=DIRECTION('',(0.E0,0.E0,-1.E0));
#503=VECTOR('',#502,2.925E0);
#504=CARTESIAN_POINT('',(3.1115E-1,3.1115E-1,-1.651E0));
#505=LINE('',#504,#503);
#506=DIRECTION('',(0.E0,0.E0,1.E0));
#507=VECTOR('',#506,2.925E0);
#508=CARTESIAN_POINT('',(-3.1115E-1,3.1115E-1,-4.576E0));
#509=LINE('',#508,#507);
#510=DIRECTION('',(-1.E0,0.E0,0.E0));
#511=VECTOR('',#510,6.223E-1);
#512=CARTESIAN_POINT('',(3.1115E-1,3.1115E-1,-4.576E0));
#513=LINE('',#512,#511);
#514=DIRECTION('',(0.E0,1.E0,0.E0));
#515=VECTOR('',#514,6.223E-1);
#516=CARTESIAN_POINT('',(3.1115E-1,-3.1115E-1,-4.576E0));
#517=LINE('',#516,#515);
#518=DIRECTION('',(0.E0,1.E0,0.E0));
#519=VECTOR('',#518,6.223E-1);
#520=CARTESIAN_POINT('',(-3.1115E-1,-3.1115E-1,-4.576E0));
#521=LINE('',#520,#519);
#522=DIRECTION('',(0.E0,-1.E0,0.E0));
#523=VECTOR('',#522,2.3368E0);
#524=CARTESIAN_POINT('',(2.032E0,1.1684E0,-1.651E0));
#525=LINE('',#524,#523);
#526=DIRECTION('',(-1.E0,0.E0,0.E0));
#527=VECTOR('',#526,6.223E-1);
#528=CARTESIAN_POINT('',(2.85115E0,-3.1115E-1,-1.651E0));
#529=LINE('',#528,#527);
#530=DIRECTION('',(0.E0,1.E0,0.E0));
#531=VECTOR('',#530,6.223E-1);
#532=CARTESIAN_POINT('',(2.22885E0,-3.1115E-1,-1.651E0));
#533=LINE('',#532,#531);
#534=DIRECTION('',(-1.E0,0.E0,0.E0));
#535=VECTOR('',#534,6.223E-1);
#536=CARTESIAN_POINT('',(2.85115E0,3.1115E-1,-1.651E0));
#537=LINE('',#536,#535);
#538=DIRECTION('',(0.E0,1.E0,0.E0));
#539=VECTOR('',#538,6.223E-1);
#540=CARTESIAN_POINT('',(2.85115E0,-3.1115E-1,-1.651E0));
#541=LINE('',#540,#539);
#542=DIRECTION('',(0.E0,-1.E0,0.E0));
#543=VECTOR('',#542,2.3368E0);
#544=CARTESIAN_POINT('',(3.048E0,1.1684E0,-1.651E0));
#545=LINE('',#544,#543);
#546=DIRECTION('',(0.E0,0.E0,-1.E0));
#547=VECTOR('',#546,5.84E0);
#548=CARTESIAN_POINT('',(2.85115E0,-3.1115E-1,5.84E0));
#549=LINE('',#548,#547);
#550=DIRECTION('',(0.E0,0.E0,1.E0));
#551=VECTOR('',#550,5.84E0);
#552=CARTESIAN_POINT('',(2.22885E0,-3.1115E-1,0.E0));
#553=LINE('',#552,#551);
#554=DIRECTION('',(1.E0,0.E0,0.E0));
#555=VECTOR('',#554,6.223E-1);
#556=CARTESIAN_POINT('',(2.22885E0,-3.1115E-1,5.84E0));
#557=LINE('',#556,#555);
#558=DIRECTION('',(0.E0,0.E0,-1.E0));
#559=VECTOR('',#558,2.925E0);
#560=CARTESIAN_POINT('',(2.85115E0,-3.1115E-1,-1.651E0));
#561=LINE('',#560,#559);
#562=DIRECTION('',(-1.E0,0.E0,0.E0));
#563=VECTOR('',#562,6.223E-1);
#564=CARTESIAN_POINT('',(2.85115E0,-3.1115E-1,-4.576E0));
#565=LINE('',#564,#563);
#566=DIRECTION('',(0.E0,0.E0,1.E0));
#567=VECTOR('',#566,2.925E0);
#568=CARTESIAN_POINT('',(2.22885E0,-3.1115E-1,-4.576E0));
#569=LINE('',#568,#567);
#570=DIRECTION('',(0.E0,1.E0,0.E0));
#571=VECTOR('',#570,6.223E-1);
#572=CARTESIAN_POINT('',(2.85115E0,-3.1115E-1,5.84E0));
#573=LINE('',#572,#571);
#574=DIRECTION('',(0.E0,1.E0,0.E0));
#575=VECTOR('',#574,6.223E-1);
#576=CARTESIAN_POINT('',(2.22885E0,-3.1115E-1,5.84E0));
#577=LINE('',#576,#575);
#578=DIRECTION('',(0.E0,0.E0,-1.E0));
#579=VECTOR('',#578,5.84E0);
#580=CARTESIAN_POINT('',(2.85115E0,3.1115E-1,5.84E0));
#581=LINE('',#580,#579);
#582=DIRECTION('',(1.E0,0.E0,0.E0));
#583=VECTOR('',#582,6.223E-1);
#584=CARTESIAN_POINT('',(2.22885E0,3.1115E-1,5.84E0));
#585=LINE('',#584,#583);
#586=DIRECTION('',(0.E0,0.E0,1.E0));
#587=VECTOR('',#586,5.84E0);
#588=CARTESIAN_POINT('',(2.22885E0,3.1115E-1,0.E0));
#589=LINE('',#588,#587);
#590=DIRECTION('',(0.E0,0.E0,-1.E0));
#591=VECTOR('',#590,2.925E0);
#592=CARTESIAN_POINT('',(2.85115E0,3.1115E-1,-1.651E0));
#593=LINE('',#592,#591);
#594=DIRECTION('',(0.E0,0.E0,1.E0));
#595=VECTOR('',#594,2.925E0);
#596=CARTESIAN_POINT('',(2.22885E0,3.1115E-1,-4.576E0));
#597=LINE('',#596,#595);
#598=DIRECTION('',(-1.E0,0.E0,0.E0));
#599=VECTOR('',#598,6.223E-1);
#600=CARTESIAN_POINT('',(2.85115E0,3.1115E-1,-4.576E0));
#601=LINE('',#600,#599);
#602=DIRECTION('',(0.E0,1.E0,0.E0));
#603=VECTOR('',#602,6.223E-1);
#604=CARTESIAN_POINT('',(2.85115E0,-3.1115E-1,-4.576E0));
#605=LINE('',#604,#603);
#606=DIRECTION('',(0.E0,1.E0,0.E0));
#607=VECTOR('',#606,6.223E-1);
#608=CARTESIAN_POINT('',(2.22885E0,-3.1115E-1,-4.576E0));
#609=LINE('',#608,#607);
#610=DIRECTION('',(0.E0,0.E0,-1.E0));
#611=VECTOR('',#610,2.286E0);
#612=CARTESIAN_POINT('',(3.6068E0,-1.1684E0,0.E0));
#613=LINE('',#612,#611);
#614=DIRECTION('',(0.E0,0.E0,-1.E0));
#615=VECTOR('',#614,2.286E0);
#616=CARTESIAN_POINT('',(1.27E0,-8.128E-1,0.E0));
#617=LINE('',#616,#615);
#618=DIRECTION('',(0.E0,1.E0,0.E0));
#619=VECTOR('',#618,6.223E-1);
#620=CARTESIAN_POINT('',(-2.85115E0,-3.1115E-1,-4.576E0));
#621=LINE('',#620,#619);
#622=DIRECTION('',(0.E0,1.E0,0.E0));
#623=VECTOR('',#622,6.223E-1);
#624=CARTESIAN_POINT('',(-2.22885E0,-3.1115E-1,-4.576E0));
#625=LINE('',#624,#623);
#626=CARTESIAN_POINT('',(-3.6068E0,1.1684E0,0.E0));
#627=CARTESIAN_POINT('',(-3.6068E0,-1.1684E0,0.E0));
#628=VERTEX_POINT('',#626);
#629=VERTEX_POINT('',#627);
#630=CARTESIAN_POINT('',(3.6068E0,-1.1684E0,0.E0));
#631=CARTESIAN_POINT('',(3.6068E0,1.1684E0,0.E0));
#632=VERTEX_POINT('',#630);
#633=VERTEX_POINT('',#631);
#634=CARTESIAN_POINT('',(-3.6068E0,1.1684E0,-2.286E0));
#635=CARTESIAN_POINT('',(-3.6068E0,-1.1684E0,-2.286E0));
#636=VERTEX_POINT('',#634);
#637=VERTEX_POINT('',#635);
#638=CARTESIAN_POINT('',(3.6068E0,-1.1684E0,-2.286E0));
#639=CARTESIAN_POINT('',(3.6068E0,1.1684E0,-2.286E0));
#640=VERTEX_POINT('',#638);
#641=VERTEX_POINT('',#639);
#642=CARTESIAN_POINT('',(-1.475305755724E0,1.1684E0,0.E0));
#643=CARTESIAN_POINT('',(-1.27E0,8.128E-1,0.E0));
#644=VERTEX_POINT('',#642);
#645=VERTEX_POINT('',#643);
#646=CARTESIAN_POINT('',(-1.064694244276E0,1.1684E0,0.E0));
#647=VERTEX_POINT('',#646);
#648=CARTESIAN_POINT('',(-1.27E0,-8.128E-1,0.E0));
#649=CARTESIAN_POINT('',(-1.475305755724E0,-1.1684E0,0.E0));
#650=VERTEX_POINT('',#648);
#651=VERTEX_POINT('',#649);
#652=CARTESIAN_POINT('',(-1.064694244276E0,-1.1684E0,0.E0));
#653=VERTEX_POINT('',#652);
#654=CARTESIAN_POINT('',(-1.475305755724E0,1.1684E0,-2.286E0));
#655=CARTESIAN_POINT('',(-1.27E0,8.128E-1,-2.286E0));
#656=VERTEX_POINT('',#654);
#657=VERTEX_POINT('',#655);
#658=CARTESIAN_POINT('',(-1.064694244276E0,1.1684E0,-2.286E0));
#659=VERTEX_POINT('',#658);
#660=CARTESIAN_POINT('',(-1.27E0,-8.128E-1,-2.286E0));
#661=CARTESIAN_POINT('',(-1.475305755724E0,-1.1684E0,-2.286E0));
#662=VERTEX_POINT('',#660);
#663=VERTEX_POINT('',#661);
#664=CARTESIAN_POINT('',(-1.064694244276E0,-1.1684E0,-2.286E0));
#665=VERTEX_POINT('',#664);
#666=CARTESIAN_POINT('',(1.064694244276E0,1.1684E0,0.E0));
#667=CARTESIAN_POINT('',(1.27E0,8.128E-1,0.E0));
#668=VERTEX_POINT('',#666);
#669=VERTEX_POINT('',#667);
#670=CARTESIAN_POINT('',(1.475305755724E0,1.1684E0,0.E0));
#671=VERTEX_POINT('',#670);
#672=CARTESIAN_POINT('',(1.27E0,-8.128E-1,0.E0));
#673=CARTESIAN_POINT('',(1.064694244276E0,-1.1684E0,0.E0));
#674=VERTEX_POINT('',#672);
#675=VERTEX_POINT('',#673);
#676=CARTESIAN_POINT('',(1.475305755724E0,-1.1684E0,0.E0));
#677=VERTEX_POINT('',#676);
#678=CARTESIAN_POINT('',(1.064694244276E0,1.1684E0,-2.286E0));
#679=CARTESIAN_POINT('',(1.27E0,8.128E-1,-2.286E0));
#680=VERTEX_POINT('',#678);
#681=VERTEX_POINT('',#679);
#682=CARTESIAN_POINT('',(1.475305755724E0,1.1684E0,-2.286E0));
#683=VERTEX_POINT('',#682);
#684=CARTESIAN_POINT('',(1.27E0,-8.128E-1,-2.286E0));
#685=CARTESIAN_POINT('',(1.064694244276E0,-1.1684E0,-2.286E0));
#686=VERTEX_POINT('',#684);
#687=VERTEX_POINT('',#685);
#688=CARTESIAN_POINT('',(1.475305755724E0,-1.1684E0,-2.286E0));
#689=VERTEX_POINT('',#688);
#690=CARTESIAN_POINT('',(-2.032E0,-1.1684E0,-1.651E0));
#691=CARTESIAN_POINT('',(-3.048E0,-1.1684E0,-1.651E0));
#692=VERTEX_POINT('',#690);
#693=VERTEX_POINT('',#691);
#694=CARTESIAN_POINT('',(-2.032E0,1.1684E0,-1.651E0));
#695=CARTESIAN_POINT('',(-3.048E0,1.1684E0,-1.651E0));
#696=VERTEX_POINT('',#694);
#697=VERTEX_POINT('',#695);
#698=CARTESIAN_POINT('',(-2.85115E0,-3.1115E-1,5.84E0));
#699=CARTESIAN_POINT('',(-2.22885E0,-3.1115E-1,5.84E0));
#700=VERTEX_POINT('',#698);
#701=VERTEX_POINT('',#699);
#702=CARTESIAN_POINT('',(-2.22885E0,-3.1115E-1,-4.576E0));
#703=CARTESIAN_POINT('',(-2.85115E0,-3.1115E-1,-4.576E0));
#704=VERTEX_POINT('',#702);
#705=VERTEX_POINT('',#703);
#706=CARTESIAN_POINT('',(-2.85115E0,3.1115E-1,5.84E0));
#707=CARTESIAN_POINT('',(-2.22885E0,3.1115E-1,5.84E0));
#708=VERTEX_POINT('',#706);
#709=VERTEX_POINT('',#707);
#710=CARTESIAN_POINT('',(-2.22885E0,3.1115E-1,-4.576E0));
#711=CARTESIAN_POINT('',(-2.85115E0,3.1115E-1,-4.576E0));
#712=VERTEX_POINT('',#710);
#713=VERTEX_POINT('',#711);
#714=CARTESIAN_POINT('',(-2.22885E0,-3.1115E-1,0.E0));
#715=CARTESIAN_POINT('',(-2.85115E0,-3.1115E-1,0.E0));
#716=VERTEX_POINT('',#714);
#717=VERTEX_POINT('',#715);
#718=CARTESIAN_POINT('',(-2.22885E0,3.1115E-1,0.E0));
#719=CARTESIAN_POINT('',(-2.85115E0,3.1115E-1,0.E0));
#720=VERTEX_POINT('',#718);
#721=VERTEX_POINT('',#719);
#722=CARTESIAN_POINT('',(-2.22885E0,-3.1115E-1,-1.651E0));
#723=CARTESIAN_POINT('',(-2.85115E0,-3.1115E-1,-1.651E0));
#724=VERTEX_POINT('',#722);
#725=VERTEX_POINT('',#723);
#726=CARTESIAN_POINT('',(-2.22885E0,3.1115E-1,-1.651E0));
#727=CARTESIAN_POINT('',(-2.85115E0,3.1115E-1,-1.651E0));
#728=VERTEX_POINT('',#726);
#729=VERTEX_POINT('',#727);
#730=CARTESIAN_POINT('',(-3.048E0,-1.1684E0,-2.286E0));
#731=VERTEX_POINT('',#730);
#732=CARTESIAN_POINT('',(-3.048E0,1.1684E0,-2.286E0));
#733=VERTEX_POINT('',#732);
#734=CARTESIAN_POINT('',(-2.032E0,-1.1684E0,-2.286E0));
#735=CARTESIAN_POINT('',(-2.032E0,1.1684E0,-2.286E0));
#736=VERTEX_POINT('',#734);
#737=VERTEX_POINT('',#735);
#738=CARTESIAN_POINT('',(5.08E-1,1.1684E0,-1.651E0));
#739=CARTESIAN_POINT('',(5.08E-1,-1.1684E0,-1.651E0));
#740=VERTEX_POINT('',#738);
#741=VERTEX_POINT('',#739);
#742=CARTESIAN_POINT('',(-5.08E-1,1.1684E0,-1.651E0));
#743=CARTESIAN_POINT('',(-5.08E-1,-1.1684E0,-1.651E0));
#744=VERTEX_POINT('',#742);
#745=VERTEX_POINT('',#743);
#746=CARTESIAN_POINT('',(-3.1115E-1,-3.1115E-1,5.84E0));
#747=CARTESIAN_POINT('',(3.1115E-1,-3.1115E-1,5.84E0));
#748=VERTEX_POINT('',#746);
#749=VERTEX_POINT('',#747);
#750=CARTESIAN_POINT('',(3.1115E-1,-3.1115E-1,-4.576E0));
#751=CARTESIAN_POINT('',(-3.1115E-1,-3.1115E-1,-4.576E0));
#752=VERTEX_POINT('',#750);
#753=VERTEX_POINT('',#751);
#754=CARTESIAN_POINT('',(-3.1115E-1,3.1115E-1,5.84E0));
#755=CARTESIAN_POINT('',(3.1115E-1,3.1115E-1,5.84E0));
#756=VERTEX_POINT('',#754);
#757=VERTEX_POINT('',#755);
#758=CARTESIAN_POINT('',(3.1115E-1,3.1115E-1,-4.576E0));
#759=CARTESIAN_POINT('',(-3.1115E-1,3.1115E-1,-4.576E0));
#760=VERTEX_POINT('',#758);
#761=VERTEX_POINT('',#759);
#762=CARTESIAN_POINT('',(3.1115E-1,-3.1115E-1,0.E0));
#763=VERTEX_POINT('',#762);
#764=CARTESIAN_POINT('',(-3.1115E-1,-3.1115E-1,0.E0));
#765=VERTEX_POINT('',#764);
#766=CARTESIAN_POINT('',(3.1115E-1,-3.1115E-1,-1.651E0));
#767=VERTEX_POINT('',#766);
#768=CARTESIAN_POINT('',(-3.1115E-1,-3.1115E-1,-1.651E0));
#769=VERTEX_POINT('',#768);
#770=CARTESIAN_POINT('',(3.1115E-1,3.1115E-1,0.E0));
#771=VERTEX_POINT('',#770);
#772=CARTESIAN_POINT('',(-3.1115E-1,3.1115E-1,0.E0));
#773=VERTEX_POINT('',#772);
#774=CARTESIAN_POINT('',(3.1115E-1,3.1115E-1,-1.651E0));
#775=VERTEX_POINT('',#774);
#776=CARTESIAN_POINT('',(-3.1115E-1,3.1115E-1,-1.651E0));
#777=VERTEX_POINT('',#776);
#778=CARTESIAN_POINT('',(3.048E0,1.1684E0,-1.651E0));
#779=CARTESIAN_POINT('',(3.048E0,-1.1684E0,-1.651E0));
#780=VERTEX_POINT('',#778);
#781=VERTEX_POINT('',#779);
#782=CARTESIAN_POINT('',(2.032E0,1.1684E0,-1.651E0));
#783=CARTESIAN_POINT('',(2.032E0,-1.1684E0,-1.651E0));
#784=VERTEX_POINT('',#782);
#785=VERTEX_POINT('',#783);
#786=CARTESIAN_POINT('',(2.22885E0,-3.1115E-1,5.84E0));
#787=CARTESIAN_POINT('',(2.85115E0,-3.1115E-1,5.84E0));
#788=VERTEX_POINT('',#786);
#789=VERTEX_POINT('',#787);
#790=CARTESIAN_POINT('',(2.85115E0,-3.1115E-1,-4.576E0));
#791=CARTESIAN_POINT('',(2.22885E0,-3.1115E-1,-4.576E0));
#792=VERTEX_POINT('',#790);
#793=VERTEX_POINT('',#791);
#794=CARTESIAN_POINT('',(2.22885E0,3.1115E-1,5.84E0));
#795=CARTESIAN_POINT('',(2.85115E0,3.1115E-1,5.84E0));
#796=VERTEX_POINT('',#794);
#797=VERTEX_POINT('',#795);
#798=CARTESIAN_POINT('',(2.85115E0,3.1115E-1,-4.576E0));
#799=CARTESIAN_POINT('',(2.22885E0,3.1115E-1,-4.576E0));
#800=VERTEX_POINT('',#798);
#801=VERTEX_POINT('',#799);
#802=CARTESIAN_POINT('',(2.85115E0,-3.1115E-1,0.E0));
#803=VERTEX_POINT('',#802);
#804=CARTESIAN_POINT('',(2.22885E0,-3.1115E-1,0.E0));
#805=VERTEX_POINT('',#804);
#806=CARTESIAN_POINT('',(2.85115E0,-3.1115E-1,-1.651E0));
#807=VERTEX_POINT('',#806);
#808=CARTESIAN_POINT('',(2.22885E0,-3.1115E-1,-1.651E0));
#809=VERTEX_POINT('',#808);
#810=CARTESIAN_POINT('',(2.85115E0,3.1115E-1,0.E0));
#811=VERTEX_POINT('',#810);
#812=CARTESIAN_POINT('',(2.22885E0,3.1115E-1,0.E0));
#813=VERTEX_POINT('',#812);
#814=CARTESIAN_POINT('',(2.85115E0,3.1115E-1,-1.651E0));
#815=VERTEX_POINT('',#814);
#816=CARTESIAN_POINT('',(2.22885E0,3.1115E-1,-1.651E0));
#817=VERTEX_POINT('',#816);
#818=CARTESIAN_POINT('',(5.08E-1,-1.1684E0,-2.286E0));
#819=CARTESIAN_POINT('',(5.08E-1,1.1684E0,-2.286E0));
#820=VERTEX_POINT('',#818);
#821=VERTEX_POINT('',#819);
#822=CARTESIAN_POINT('',(-5.08E-1,-1.1684E0,-2.286E0));
#823=CARTESIAN_POINT('',(-5.08E-1,1.1684E0,-2.286E0));
#824=VERTEX_POINT('',#822);
#825=VERTEX_POINT('',#823);
#826=CARTESIAN_POINT('',(3.048E0,-1.1684E0,-2.286E0));
#827=CARTESIAN_POINT('',(3.048E0,1.1684E0,-2.286E0));
#828=VERTEX_POINT('',#826);
#829=VERTEX_POINT('',#827);
#830=CARTESIAN_POINT('',(2.032E0,-1.1684E0,-2.286E0));
#831=CARTESIAN_POINT('',(2.032E0,1.1684E0,-2.286E0));
#832=VERTEX_POINT('',#830);
#833=VERTEX_POINT('',#831);
#834=CARTESIAN_POINT('',(0.E0,0.E0,0.E0));
#835=DIRECTION('',(0.E0,0.E0,1.E0));
#836=DIRECTION('',(1.E0,0.E0,0.E0));
#837=AXIS2_PLACEMENT_3D('',#834,#835,#836);
#838=PLANE('',#837);
#840=ORIENTED_EDGE('',*,*,#839,.T.);
#842=ORIENTED_EDGE('',*,*,#841,.T.);
#844=ORIENTED_EDGE('',*,*,#843,.F.);
#846=ORIENTED_EDGE('',*,*,#845,.F.);
#848=ORIENTED_EDGE('',*,*,#847,.F.);
#850=ORIENTED_EDGE('',*,*,#849,.T.);
#852=ORIENTED_EDGE('',*,*,#851,.T.);
#854=ORIENTED_EDGE('',*,*,#853,.F.);
#856=ORIENTED_EDGE('',*,*,#855,.T.);
#858=ORIENTED_EDGE('',*,*,#857,.T.);
#860=ORIENTED_EDGE('',*,*,#859,.F.);
#862=ORIENTED_EDGE('',*,*,#861,.F.);
#864=ORIENTED_EDGE('',*,*,#863,.F.);
#866=ORIENTED_EDGE('',*,*,#865,.T.);
#868=ORIENTED_EDGE('',*,*,#867,.T.);
#870=ORIENTED_EDGE('',*,*,#869,.F.);
#871=EDGE_LOOP('',(#840,#842,#844,#846,#848,#850,#852,#854,#856,#858,#860,#862,
#864,#866,#868,#870));
#872=FACE_OUTER_BOUND('',#871,.F.);
#874=ORIENTED_EDGE('',*,*,#873,.F.);
#876=ORIENTED_EDGE('',*,*,#875,.T.);
#878=ORIENTED_EDGE('',*,*,#877,.T.);
#880=ORIENTED_EDGE('',*,*,#879,.F.);
#881=EDGE_LOOP('',(#874,#876,#878,#880));
#882=FACE_BOUND('',#881,.F.);
#884=ORIENTED_EDGE('',*,*,#883,.F.);
#886=ORIENTED_EDGE('',*,*,#885,.T.);
#888=ORIENTED_EDGE('',*,*,#887,.T.);
#890=ORIENTED_EDGE('',*,*,#889,.F.);
#891=EDGE_LOOP('',(#884,#886,#888,#890));
#892=FACE_BOUND('',#891,.F.);
#894=ORIENTED_EDGE('',*,*,#893,.F.);
#896=ORIENTED_EDGE('',*,*,#895,.T.);
#898=ORIENTED_EDGE('',*,*,#897,.T.);
#900=ORIENTED_EDGE('',*,*,#899,.F.);
#901=EDGE_LOOP('',(#894,#896,#898,#900));
#902=FACE_BOUND('',#901,.F.);
#904=CARTESIAN_POINT('',(0.E0,-3.1115E-1,0.E0));
#905=DIRECTION('',(0.E0,1.E0,0.E0));
#906=DIRECTION('',(-1.E0,0.E0,0.E0));
#907=AXIS2_PLACEMENT_3D('',#904,#905,#906);
#908=PLANE('',#907);
#909=ORIENTED_EDGE('',*,*,#893,.T.);
#911=ORIENTED_EDGE('',*,*,#910,.T.);
#913=ORIENTED_EDGE('',*,*,#912,.T.);
#915=ORIENTED_EDGE('',*,*,#914,.T.);
#916=EDGE_LOOP('',(#909,#911,#913,#915));
#917=FACE_OUTER_BOUND('',#916,.F.);
#919=CARTESIAN_POINT('',(0.E0,-3.1115E-1,0.E0));
#920=DIRECTION('',(0.E0,1.E0,0.E0));
#921=DIRECTION('',(-1.E0,0.E0,0.E0));
#922=AXIS2_PLACEMENT_3D('',#919,#920,#921);
#923=PLANE('',#922);
#925=ORIENTED_EDGE('',*,*,#924,.F.);
#927=ORIENTED_EDGE('',*,*,#926,.T.);
#929=ORIENTED_EDGE('',*,*,#928,.T.);
#931=ORIENTED_EDGE('',*,*,#930,.T.);
#932=EDGE_LOOP('',(#925,#927,#929,#931));
#933=FACE_OUTER_BOUND('',#932,.F.);
#935=CARTESIAN_POINT('',(-2.85115E0,-3.1115E-1,0.E0));
#936=DIRECTION('',(-1.E0,0.E0,0.E0));
#937=DIRECTION('',(0.E0,0.E0,1.E0));
#938=AXIS2_PLACEMENT_3D('',#935,#936,#937);
#939=PLANE('',#938);
#940=ORIENTED_EDGE('',*,*,#899,.T.);
#942=ORIENTED_EDGE('',*,*,#941,.T.);
#944=ORIENTED_EDGE('',*,*,#943,.F.);
#945=ORIENTED_EDGE('',*,*,#910,.F.);
#946=EDGE_LOOP('',(#940,#942,#944,#945));
#947=FACE_OUTER_BOUND('',#946,.F.);
#949=CARTESIAN_POINT('',(0.E0,3.1115E-1,0.E0));
#950=DIRECTION('',(0.E0,1.E0,0.E0));
#951=DIRECTION('',(-1.E0,0.E0,0.E0));
#952=AXIS2_PLACEMENT_3D('',#949,#950,#951);
#953=PLANE('',#952);
#954=ORIENTED_EDGE('',*,*,#897,.F.);
#956=ORIENTED_EDGE('',*,*,#955,.F.);
#958=ORIENTED_EDGE('',*,*,#957,.F.);
#959=ORIENTED_EDGE('',*,*,#941,.F.);
#960=EDGE_LOOP('',(#954,#956,#958,#959));
#961=FACE_OUTER_BOUND('',#960,.F.);
#963=CARTESIAN_POINT('',(0.E0,3.1115E-1,0.E0));
#964=DIRECTION('',(0.E0,1.E0,0.E0));
#965=DIRECTION('',(-1.E0,0.E0,0.E0));
#966=AXIS2_PLACEMENT_3D('',#963,#964,#965);
#967=PLANE('',#966);
#969=ORIENTED_EDGE('',*,*,#968,.T.);
#971=ORIENTED_EDGE('',*,*,#970,.F.);
#973=ORIENTED_EDGE('',*,*,#972,.F.);
#975=ORIENTED_EDGE('',*,*,#974,.F.);
#976=EDGE_LOOP('',(#969,#971,#973,#975));
#977=FACE_OUTER_BOUND('',#976,.F.);
#979=CARTESIAN_POINT('',(-2.22885E0,-3.1115E-1,5.84E0));
#980=DIRECTION('',(1.E0,0.E0,0.E0));
#981=DIRECTION('',(0.E0,0.E0,-1.E0));
#982=AXIS2_PLACEMENT_3D('',#979,#980,#981);
#983=PLANE('',#982);
#984=ORIENTED_EDGE('',*,*,#895,.F.);
#985=ORIENTED_EDGE('',*,*,#914,.F.);
#987=ORIENTED_EDGE('',*,*,#986,.T.);
#988=ORIENTED_EDGE('',*,*,#955,.T.);
#989=EDGE_LOOP('',(#984,#985,#987,#988));
#990=FACE_OUTER_BOUND('',#989,.F.);
#992=CARTESIAN_POINT('',(-2.85115E0,-3.1115E-1,5.84E0));
#993=DIRECTION('',(0.E0,0.E0,1.E0));
#994=DIRECTION('',(1.E0,0.E0,0.E0));
#995=AXIS2_PLACEMENT_3D('',#992,#993,#994);
#996=PLANE('',#995);
#997=ORIENTED_EDGE('',*,*,#912,.F.);
#998=ORIENTED_EDGE('',*,*,#943,.T.);
#999=ORIENTED_EDGE('',*,*,#957,.T.);
#1000=ORIENTED_EDGE('',*,*,#986,.F.);
#1001=EDGE_LOOP('',(#997,#998,#999,#1000));
#1002=FACE_OUTER_BOUND('',#1001,.F.);
#1004=CARTESIAN_POINT('',(-3.048E0,1.1684E0,-1.651E0));
#1005=DIRECTION('',(0.E0,0.E0,1.E0));
#1006=DIRECTION('',(1.E0,0.E0,0.E0));
#1007=AXIS2_PLACEMENT_3D('',#1004,#1005,#1006);
#1008=PLANE('',#1007);
#1010=ORIENTED_EDGE('',*,*,#1009,.F.);
#1012=ORIENTED_EDGE('',*,*,#1011,.F.);
#1014=ORIENTED_EDGE('',*,*,#1013,.T.);
#1016=ORIENTED_EDGE('',*,*,#1015,.T.);
#1017=EDGE_LOOP('',(#1010,#1012,#1014,#1016));
#1018=FACE_OUTER_BOUND('',#1017,.F.);
#1019=ORIENTED_EDGE('',*,*,#924,.T.);
#1021=ORIENTED_EDGE('',*,*,#1020,.T.);
#1022=ORIENTED_EDGE('',*,*,#968,.F.);
#1024=ORIENTED_EDGE('',*,*,#1023,.F.);
#1025=EDGE_LOOP('',(#1019,#1021,#1022,#1024));
#1026=FACE_BOUND('',#1025,.F.);
#1028=CARTESIAN_POINT('',(-3.6068E0,-1.1684E0,0.E0));
#1029=DIRECTION('',(0.E0,-1.E0,0.E0));
#1030=DIRECTION('',(1.E0,0.E0,0.E0));
#1031=AXIS2_PLACEMENT_3D('',#1028,#1029,#1030);
#1032=PLANE('',#1031);
#1034=ORIENTED_EDGE('',*,*,#1033,.F.);
#1036=ORIENTED_EDGE('',*,*,#1035,.F.);
#1038=ORIENTED_EDGE('',*,*,#1037,.T.);
#1039=ORIENTED_EDGE('',*,*,#1009,.T.);
#1041=ORIENTED_EDGE('',*,*,#1040,.F.);
#1043=ORIENTED_EDGE('',*,*,#1042,.F.);
#1045=ORIENTED_EDGE('',*,*,#1044,.F.);
#1046=ORIENTED_EDGE('',*,*,#859,.T.);
#1047=EDGE_LOOP('',(#1034,#1036,#1038,#1039,#1041,#1043,#1045,#1046));
#1048=FACE_OUTER_BOUND('',#1047,.F.);
#1050=CARTESIAN_POINT('',(-3.6068E0,-1.1684E0,0.E0));
#1051=DIRECTION('',(0.E0,-1.E0,0.E0));
#1052=DIRECTION('',(1.E0,0.E0,0.E0));
#1053=AXIS2_PLACEMENT_3D('',#1050,#1051,#1052);
#1054=PLANE('',#1053);
#1056=ORIENTED_EDGE('',*,*,#1055,.F.);
#1058=ORIENTED_EDGE('',*,*,#1057,.F.);
#1060=ORIENTED_EDGE('',*,*,#1059,.T.);
#1062=ORIENTED_EDGE('',*,*,#1061,.F.);
#1064=ORIENTED_EDGE('',*,*,#1063,.F.);
#1066=ORIENTED_EDGE('',*,*,#1065,.F.);
#1068=ORIENTED_EDGE('',*,*,#1067,.T.);
#1069=ORIENTED_EDGE('',*,*,#853,.T.);
#1070=EDGE_LOOP('',(#1056,#1058,#1060,#1062,#1064,#1066,#1068,#1069));
#1071=FACE_OUTER_BOUND('',#1070,.F.);
#1073=CARTESIAN_POINT('',(-3.6068E0,-1.1684E0,0.E0));
#1074=DIRECTION('',(0.E0,-1.E0,0.E0));
#1075=DIRECTION('',(1.E0,0.E0,0.E0));
#1076=AXIS2_PLACEMENT_3D('',#1073,#1074,#1075);
#1077=PLANE('',#1076);
#1079=ORIENTED_EDGE('',*,*,#1078,.T.);
#1080=ORIENTED_EDGE('',*,*,#847,.T.);
#1082=ORIENTED_EDGE('',*,*,#1081,.T.);
#1084=ORIENTED_EDGE('',*,*,#1083,.F.);
#1086=ORIENTED_EDGE('',*,*,#1085,.T.);
#1088=ORIENTED_EDGE('',*,*,#1087,.F.);
#1090=ORIENTED_EDGE('',*,*,#1089,.F.);
#1092=ORIENTED_EDGE('',*,*,#1091,.F.);
#1093=EDGE_LOOP('',(#1079,#1080,#1082,#1084,#1086,#1088,#1090,#1092));
#1094=FACE_OUTER_BOUND('',#1093,.F.);
#1096=CARTESIAN_POINT('',(-1.27E0,-8.128E-1,0.E0));
#1097=DIRECTION('',(-8.660254037845E-1,4.999999999999E-1,0.E0));
#1098=DIRECTION('',(-4.999999999999E-1,-8.660254037845E-1,0.E0));
#1099=AXIS2_PLACEMENT_3D('',#1096,#1097,#1098);
#1100=PLANE('',#1099);
#1101=ORIENTED_EDGE('',*,*,#857,.F.);
#1103=ORIENTED_EDGE('',*,*,#1102,.T.);
#1105=ORIENTED_EDGE('',*,*,#1104,.T.);
#1106=ORIENTED_EDGE('',*,*,#1033,.T.);
#1107=EDGE_LOOP('',(#1101,#1103,#1105,#1106));
#1108=FACE_OUTER_BOUND('',#1107,.F.);
#1110=CARTESIAN_POINT('',(-1.064694244276E0,-1.1684E0,0.E0));
#1111=DIRECTION('',(8.660254037845E-1,4.999999999999E-1,0.E0));
#1112=DIRECTION('',(-4.999999999999E-1,8.660254037845E-1,0.E0));
#1113=AXIS2_PLACEMENT_3D('',#1110,#1111,#1112);
#1114=PLANE('',#1113);
#1115=ORIENTED_EDGE('',*,*,#855,.F.);
#1116=ORIENTED_EDGE('',*,*,#1067,.F.);
#1118=ORIENTED_EDGE('',*,*,#1117,.T.);
#1119=ORIENTED_EDGE('',*,*,#1102,.F.);
#1120=EDGE_LOOP('',(#1115,#1116,#1118,#1119));
#1121=FACE_OUTER_BOUND('',#1120,.F.);
#1123=CARTESIAN_POINT('',(0.E0,0.E0,-2.286E0));
#1124=DIRECTION('',(0.E0,0.E0,1.E0));
#1125=DIRECTION('',(1.E0,0.E0,0.E0));
#1126=AXIS2_PLACEMENT_3D('',#1123,#1124,#1125);
#1127=PLANE('',#1126);
#1128=ORIENTED_EDGE('',*,*,#1042,.T.);
#1130=ORIENTED_EDGE('',*,*,#1129,.T.);
#1132=ORIENTED_EDGE('',*,*,#1131,.T.);
#1134=ORIENTED_EDGE('',*,*,#1133,.T.);
#1135=EDGE_LOOP('',(#1128,#1130,#1132,#1134));
#1136=FACE_OUTER_BOUND('',#1135,.F.);
#1138=CARTESIAN_POINT('',(0.E0,0.E0,-2.286E0));
#1139=DIRECTION('',(0.E0,0.E0,1.E0));
#1140=DIRECTION('',(1.E0,0.E0,0.E0));
#1141=AXIS2_PLACEMENT_3D('',#1138,#1139,#1140);
#1142=PLANE('',#1141);
#1144=ORIENTED_EDGE('',*,*,#1143,.F.);
#1145=ORIENTED_EDGE('',*,*,#1083,.T.);
#1147=ORIENTED_EDGE('',*,*,#1146,.T.);
#1149=ORIENTED_EDGE('',*,*,#1148,.T.);
#1150=EDGE_LOOP('',(#1144,#1145,#1147,#1149));
#1151=FACE_OUTER_BOUND('',#1150,.F.);
#1153=CARTESIAN_POINT('',(0.E0,0.E0,-2.286E0));
#1154=DIRECTION('',(0.E0,0.E0,1.E0));
#1155=DIRECTION('',(1.E0,0.E0,0.E0));
#1156=AXIS2_PLACEMENT_3D('',#1153,#1154,#1155);
#1157=PLANE('',#1156);
#1159=ORIENTED_EDGE('',*,*,#1158,.F.);
#1161=ORIENTED_EDGE('',*,*,#1160,.T.);
#1163=ORIENTED_EDGE('',*,*,#1162,.F.);
#1164=ORIENTED_EDGE('',*,*,#1035,.T.);
#1165=ORIENTED_EDGE('',*,*,#1104,.F.);
#1166=ORIENTED_EDGE('',*,*,#1117,.F.);
#1167=ORIENTED_EDGE('',*,*,#1065,.T.);
#1169=ORIENTED_EDGE('',*,*,#1168,.T.);
#1171=ORIENTED_EDGE('',*,*,#1170,.T.);
#1173=ORIENTED_EDGE('',*,*,#1172,.F.);
#1174=EDGE_LOOP('',(#1159,#1161,#1163,#1164,#1165,#1166,#1167,#1169,#1171,
#1173));
#1175=FACE_OUTER_BOUND('',#1174,.F.);
#1177=CARTESIAN_POINT('',(0.E0,0.E0,-2.286E0));
#1178=DIRECTION('',(0.E0,0.E0,1.E0));
#1179=DIRECTION('',(1.E0,0.E0,0.E0));
#1180=AXIS2_PLACEMENT_3D('',#1177,#1178,#1179);
#1181=PLANE('',#1180);
#1183=ORIENTED_EDGE('',*,*,#1182,.F.);
#1185=ORIENTED_EDGE('',*,*,#1184,.T.);
#1187=ORIENTED_EDGE('',*,*,#1186,.F.);
#1188=ORIENTED_EDGE('',*,*,#1057,.T.);
#1190=ORIENTED_EDGE('',*,*,#1189,.F.);
#1192=ORIENTED_EDGE('',*,*,#1191,.F.);
#1193=ORIENTED_EDGE('',*,*,#1091,.T.);
#1195=ORIENTED_EDGE('',*,*,#1194,.T.);
#1197=ORIENTED_EDGE('',*,*,#1196,.T.);
#1199=ORIENTED_EDGE('',*,*,#1198,.F.);
#1200=EDGE_LOOP('',(#1183,#1185,#1187,#1188,#1190,#1192,#1193,#1195,#1197,
#1199));
#1201=FACE_OUTER_BOUND('',#1200,.F.);
#1203=CARTESIAN_POINT('',(-3.048E0,1.1684E0,-2.286E0));
#1204=DIRECTION('',(-1.E0,0.E0,0.E0));
#1205=DIRECTION('',(0.E0,0.E0,1.E0));
#1206=AXIS2_PLACEMENT_3D('',#1203,#1204,#1205);
#1207=PLANE('',#1206);
#1208=ORIENTED_EDGE('',*,*,#1129,.F.);
#1209=ORIENTED_EDGE('',*,*,#1040,.T.);
#1210=ORIENTED_EDGE('',*,*,#1015,.F.);
#1212=ORIENTED_EDGE('',*,*,#1211,.F.);
#1213=EDGE_LOOP('',(#1208,#1209,#1210,#1212));
#1214=FACE_OUTER_BOUND('',#1213,.F.);
#1216=CARTESIAN_POINT('',(3.6068E0,1.1684E0,0.E0));
#1217=DIRECTION('',(0.E0,1.E0,0.E0));
#1218=DIRECTION('',(-1.E0,0.E0,0.E0));
#1219=AXIS2_PLACEMENT_3D('',#1216,#1217,#1218);
#1220=PLANE('',#1219);
#1222=ORIENTED_EDGE('',*,*,#1221,.T.);
#1223=ORIENTED_EDGE('',*,*,#863,.T.);
#1225=ORIENTED_EDGE('',*,*,#1224,.T.);
#1226=ORIENTED_EDGE('',*,*,#1131,.F.);
#1227=ORIENTED_EDGE('',*,*,#1211,.T.);
#1228=ORIENTED_EDGE('',*,*,#1013,.F.);
#1230=ORIENTED_EDGE('',*,*,#1229,.F.);
#1231=ORIENTED_EDGE('',*,*,#1160,.F.);
#1232=EDGE_LOOP('',(#1222,#1223,#1225,#1226,#1227,#1228,#1230,#1231));
#1233=FACE_OUTER_BOUND('',#1232,.F.);
#1235=CARTESIAN_POINT('',(3.6068E0,1.1684E0,0.E0));
#1236=DIRECTION('',(0.E0,1.E0,0.E0));
#1237=DIRECTION('',(-1.E0,0.E0,0.E0));
#1238=AXIS2_PLACEMENT_3D('',#1235,#1236,#1237);
#1239=PLANE('',#1238);
#1241=ORIENTED_EDGE('',*,*,#1240,.T.);
#1242=ORIENTED_EDGE('',*,*,#869,.T.);
#1244=ORIENTED_EDGE('',*,*,#1243,.F.);
#1245=ORIENTED_EDGE('',*,*,#1170,.F.);
#1247=ORIENTED_EDGE('',*,*,#1246,.T.);
#1249=ORIENTED_EDGE('',*,*,#1248,.F.);
#1251=ORIENTED_EDGE('',*,*,#1250,.F.);
#1252=ORIENTED_EDGE('',*,*,#1184,.F.);
#1253=EDGE_LOOP('',(#1241,#1242,#1244,#1245,#1247,#1249,#1251,#1252));
#1254=FACE_OUTER_BOUND('',#1253,.F.);
#1256=CARTESIAN_POINT('',(3.6068E0,1.1684E0,0.E0));
#1257=DIRECTION('',(0.E0,1.E0,0.E0));
#1258=DIRECTION('',(-1.E0,0.E0,0.E0));
#1259=AXIS2_PLACEMENT_3D('',#1256,#1257,#1258);
#1260=PLANE('',#1259);
#1262=ORIENTED_EDGE('',*,*,#1261,.F.);
#1263=ORIENTED_EDGE('',*,*,#1196,.F.);
#1265=ORIENTED_EDGE('',*,*,#1264,.T.);
#1267=ORIENTED_EDGE('',*,*,#1266,.F.);
#1269=ORIENTED_EDGE('',*,*,#1268,.F.);
#1270=ORIENTED_EDGE('',*,*,#1148,.F.);
#1272=ORIENTED_EDGE('',*,*,#1271,.F.);
#1273=ORIENTED_EDGE('',*,*,#843,.T.);
#1274=EDGE_LOOP('',(#1262,#1263,#1265,#1267,#1269,#1270,#1272,#1273));
#1275=FACE_OUTER_BOUND('',#1274,.F.);
#1277=CARTESIAN_POINT('',(-1.475305755724E0,1.1684E0,0.E0));
#1278=DIRECTION('',(-8.660254037845E-1,-4.999999999999E-1,0.E0));
#1279=DIRECTION('',(4.999999999999E-1,-8.660254037845E-1,0.E0));
#1280=AXIS2_PLACEMENT_3D('',#1277,#1278,#1279);
#1281=PLANE('',#1280);
#1282=ORIENTED_EDGE('',*,*,#865,.F.);
#1283=ORIENTED_EDGE('',*,*,#1221,.F.);
#1284=ORIENTED_EDGE('',*,*,#1158,.T.);
#1286=ORIENTED_EDGE('',*,*,#1285,.F.);
#1287=EDGE_LOOP('',(#1282,#1283,#1284,#1286));
#1288=FACE_OUTER_BOUND('',#1287,.F.);
#1290=CARTESIAN_POINT('',(-1.27E0,8.128E-1,0.E0));
#1291=DIRECTION('',(8.660254037845E-1,-4.999999999999E-1,0.E0));
#1292=DIRECTION('',(4.999999999999E-1,8.660254037845E-1,0.E0));
#1293=AXIS2_PLACEMENT_3D('',#1290,#1291,#1292);
#1294=PLANE('',#1293);
#1295=ORIENTED_EDGE('',*,*,#867,.F.);
#1296=ORIENTED_EDGE('',*,*,#1285,.T.);
#1297=ORIENTED_EDGE('',*,*,#1172,.T.);
#1298=ORIENTED_EDGE('',*,*,#1243,.T.);
#1299=EDGE_LOOP('',(#1295,#1296,#1297,#1298));
#1300=FACE_OUTER_BOUND('',#1299,.F.);
#1302=CARTESIAN_POINT('',(-3.6068E0,1.1684E0,0.E0));
#1303=DIRECTION('',(-1.E0,0.E0,0.E0));
#1304=DIRECTION('',(0.E0,-1.E0,0.E0));
#1305=AXIS2_PLACEMENT_3D('',#1302,#1303,#1304);
#1306=PLANE('',#1305);
#1307=ORIENTED_EDGE('',*,*,#861,.T.);
#1308=ORIENTED_EDGE('',*,*,#1044,.T.);
#1309=ORIENTED_EDGE('',*,*,#1133,.F.);
#1310=ORIENTED_EDGE('',*,*,#1224,.F.);
#1311=EDGE_LOOP('',(#1307,#1308,#1309,#1310));
#1312=FACE_OUTER_BOUND('',#1311,.F.);
#1314=CARTESIAN_POINT('',(-2.032E0,1.1684E0,-1.651E0));
#1315=DIRECTION('',(1.E0,0.E0,0.E0));
#1316=DIRECTION('',(0.E0,0.E0,-1.E0));
#1317=AXIS2_PLACEMENT_3D('',#1314,#1315,#1316);
#1318=PLANE('',#1317);
#1319=ORIENTED_EDGE('',*,*,#1162,.T.);
#1320=ORIENTED_EDGE('',*,*,#1229,.T.);
#1321=ORIENTED_EDGE('',*,*,#1011,.T.);
#1322=ORIENTED_EDGE('',*,*,#1037,.F.);
#1323=EDGE_LOOP('',(#1319,#1320,#1321,#1322));
#1324=FACE_OUTER_BOUND('',#1323,.F.);
#1326=CARTESIAN_POINT('',(1.064694244276E0,1.1684E0,0.E0));
#1327=DIRECTION('',(-8.660254037845E-1,-4.999999999999E-1,0.E0));
#1328=DIRECTION('',(4.999999999999E-1,-8.660254037845E-1,0.E0));
#1329=AXIS2_PLACEMENT_3D('',#1326,#1327,#1328);
#1330=PLANE('',#1329);
#1331=ORIENTED_EDGE('',*,*,#839,.F.);
#1332=ORIENTED_EDGE('',*,*,#1240,.F.);
#1333=ORIENTED_EDGE('',*,*,#1182,.T.);
#1335=ORIENTED_EDGE('',*,*,#1334,.F.);
#1336=EDGE_LOOP('',(#1331,#1332,#1333,#1335));
#1337=FACE_OUTER_BOUND('',#1336,.F.);
#1339=CARTESIAN_POINT('',(1.27E0,8.128E-1,0.E0));
#1340=DIRECTION('',(8.660254037845E-1,-4.999999999999E-1,0.E0));
#1341=DIRECTION('',(4.999999999999E-1,8.660254037845E-1,0.E0));
#1342=AXIS2_PLACEMENT_3D('',#1339,#1340,#1341);
#1343=PLANE('',#1342);
#1344=ORIENTED_EDGE('',*,*,#841,.F.);
#1345=ORIENTED_EDGE('',*,*,#1334,.T.);
#1346=ORIENTED_EDGE('',*,*,#1198,.T.);
#1347=ORIENTED_EDGE('',*,*,#1261,.T.);
#1348=EDGE_LOOP('',(#1344,#1345,#1346,#1347));
#1349=FACE_OUTER_BOUND('',#1348,.F.);
#1351=CARTESIAN_POINT('',(-5.08E-1,1.1684E0,-2.286E0));
#1352=DIRECTION('',(-1.E0,0.E0,0.E0));
#1353=DIRECTION('',(0.E0,0.E0,1.E0));
#1354=AXIS2_PLACEMENT_3D('',#1351,#1352,#1353);
#1355=PLANE('',#1354);
#1357=ORIENTED_EDGE('',*,*,#1356,.F.);
#1358=ORIENTED_EDGE('',*,*,#1246,.F.);
#1359=ORIENTED_EDGE('',*,*,#1168,.F.);
#1360=ORIENTED_EDGE('',*,*,#1063,.T.);
#1361=EDGE_LOOP('',(#1357,#1358,#1359,#1360));
#1362=FACE_OUTER_BOUND('',#1361,.F.);
#1364=CARTESIAN_POINT('',(-5.08E-1,1.1684E0,-1.651E0));
#1365=DIRECTION('',(0.E0,0.E0,1.E0));
#1366=DIRECTION('',(1.E0,0.E0,0.E0));
#1367=AXIS2_PLACEMENT_3D('',#1364,#1365,#1366);
#1368=PLANE('',#1367);
#1370=ORIENTED_EDGE('',*,*,#1369,.F.);
#1371=ORIENTED_EDGE('',*,*,#1248,.T.);
#1372=ORIENTED_EDGE('',*,*,#1356,.T.);
#1373=ORIENTED_EDGE('',*,*,#1061,.T.);
#1374=EDGE_LOOP('',(#1370,#1371,#1372,#1373));
#1375=FACE_OUTER_BOUND('',#1374,.F.);
#1377=ORIENTED_EDGE('',*,*,#1376,.T.);
#1379=ORIENTED_EDGE('',*,*,#1378,.T.);
#1381=ORIENTED_EDGE('',*,*,#1380,.F.);
#1383=ORIENTED_EDGE('',*,*,#1382,.F.);
#1384=EDGE_LOOP('',(#1377,#1379,#1381,#1383));
#1385=FACE_BOUND('',#1384,.F.);
#1387=CARTESIAN_POINT('',(5.08E-1,1.1684E0,-1.651E0));
#1388=DIRECTION('',(1.E0,0.E0,0.E0));
#1389=DIRECTION('',(0.E0,0.E0,-1.E0));
#1390=AXIS2_PLACEMENT_3D('',#1387,#1388,#1389);
#1391=PLANE('',#1390);
#1392=ORIENTED_EDGE('',*,*,#1369,.T.);
#1393=ORIENTED_EDGE('',*,*,#1059,.F.);
#1394=ORIENTED_EDGE('',*,*,#1186,.T.);
#1395=ORIENTED_EDGE('',*,*,#1250,.T.);
#1396=EDGE_LOOP('',(#1392,#1393,#1394,#1395));
#1397=FACE_OUTER_BOUND('',#1396,.F.);
#1399=CARTESIAN_POINT('',(2.54E0,-3.1115E-1,0.E0));
#1400=DIRECTION('',(0.E0,1.E0,0.E0));
#1401=DIRECTION('',(-1.E0,0.E0,0.E0));
#1402=AXIS2_PLACEMENT_3D('',#1399,#1400,#1401);
#1403=PLANE('',#1402);
#1405=ORIENTED_EDGE('',*,*,#1404,.T.);
#1406=ORIENTED_EDGE('',*,*,#873,.T.);
#1408=ORIENTED_EDGE('',*,*,#1407,.T.);
#1410=ORIENTED_EDGE('',*,*,#1409,.T.);
#1411=EDGE_LOOP('',(#1405,#1406,#1408,#1410));
#1412=FACE_OUTER_BOUND('',#1411,.F.);
#1414=CARTESIAN_POINT('',(2.54E0,-3.1115E-1,0.E0));
#1415=DIRECTION('',(0.E0,1.E0,0.E0));
#1416=DIRECTION('',(-1.E0,0.E0,0.E0));
#1417=AXIS2_PLACEMENT_3D('',#1414,#1415,#1416);
#1418=PLANE('',#1417);
#1420=ORIENTED_EDGE('',*,*,#1419,.T.);
#1422=ORIENTED_EDGE('',*,*,#1421,.T.);
#1424=ORIENTED_EDGE('',*,*,#1423,.T.);
#1425=ORIENTED_EDGE('',*,*,#1376,.F.);
#1426=EDGE_LOOP('',(#1420,#1422,#1424,#1425));
#1427=FACE_OUTER_BOUND('',#1426,.F.);
#1429=CARTESIAN_POINT('',(3.1115E-1,-3.1115E-1,5.84E0));
#1430=DIRECTION('',(1.E0,0.E0,0.E0));
#1431=DIRECTION('',(0.E0,0.E0,-1.E0));
#1432=AXIS2_PLACEMENT_3D('',#1429,#1430,#1431);
#1433=PLANE('',#1432);
#1434=ORIENTED_EDGE('',*,*,#1404,.F.);
#1436=ORIENTED_EDGE('',*,*,#1435,.T.);
#1438=ORIENTED_EDGE('',*,*,#1437,.T.);
#1439=ORIENTED_EDGE('',*,*,#875,.F.);
#1440=EDGE_LOOP('',(#1434,#1436,#1438,#1439));
#1441=FACE_OUTER_BOUND('',#1440,.F.);
#1443=CARTESIAN_POINT('',(-3.1115E-1,-3.1115E-1,5.84E0));
#1444=DIRECTION('',(0.E0,0.E0,1.E0));
#1445=DIRECTION('',(1.E0,0.E0,0.E0));
#1446=AXIS2_PLACEMENT_3D('',#1443,#1444,#1445);
#1447=PLANE('',#1446);
#1448=ORIENTED_EDGE('',*,*,#1409,.F.);
#1450=ORIENTED_EDGE('',*,*,#1449,.T.);
#1452=ORIENTED_EDGE('',*,*,#1451,.T.);
#1453=ORIENTED_EDGE('',*,*,#1435,.F.);
#1454=EDGE_LOOP('',(#1448,#1450,#1452,#1453));
#1455=FACE_OUTER_BOUND('',#1454,.F.);
#1457=CARTESIAN_POINT('',(-3.1115E-1,-3.1115E-1,0.E0));
#1458=DIRECTION('',(-1.E0,0.E0,0.E0));
#1459=DIRECTION('',(0.E0,0.E0,1.E0));
#1460=AXIS2_PLACEMENT_3D('',#1457,#1458,#1459);
#1461=PLANE('',#1460);
#1462=ORIENTED_EDGE('',*,*,#1407,.F.);
#1463=ORIENTED_EDGE('',*,*,#879,.T.);
#1465=ORIENTED_EDGE('',*,*,#1464,.T.);
#1466=ORIENTED_EDGE('',*,*,#1449,.F.);
#1467=EDGE_LOOP('',(#1462,#1463,#1465,#1466));
#1468=FACE_OUTER_BOUND('',#1467,.F.);
#1470=CARTESIAN_POINT('',(2.54E0,3.1115E-1,0.E0));
#1471=DIRECTION('',(0.E0,1.E0,0.E0));
#1472=DIRECTION('',(-1.E0,0.E0,0.E0));
#1473=AXIS2_PLACEMENT_3D('',#1470,#1471,#1472);
#1474=PLANE('',#1473);
#1475=ORIENTED_EDGE('',*,*,#1437,.F.);
#1476=ORIENTED_EDGE('',*,*,#1451,.F.);
#1477=ORIENTED_EDGE('',*,*,#1464,.F.);
#1478=ORIENTED_EDGE('',*,*,#877,.F.);
#1479=EDGE_LOOP('',(#1475,#1476,#1477,#1478));
#1480=FACE_OUTER_BOUND('',#1479,.F.);
#1482=CARTESIAN_POINT('',(2.54E0,3.1115E-1,0.E0));
#1483=DIRECTION('',(0.E0,1.E0,0.E0));
#1484=DIRECTION('',(-1.E0,0.E0,0.E0));
#1485=AXIS2_PLACEMENT_3D('',#1482,#1483,#1484);
#1486=PLANE('',#1485);
#1488=ORIENTED_EDGE('',*,*,#1487,.F.);
#1489=ORIENTED_EDGE('',*,*,#1380,.T.);
#1491=ORIENTED_EDGE('',*,*,#1490,.F.);
#1493=ORIENTED_EDGE('',*,*,#1492,.F.);
#1494=EDGE_LOOP('',(#1488,#1489,#1491,#1493));
#1495=FACE_OUTER_BOUND('',#1494,.F.);
#1497=CARTESIAN_POINT('',(3.1115E-1,-3.1115E-1,-1.651E0));
#1498=DIRECTION('',(1.E0,0.E0,0.E0));
#1499=DIRECTION('',(0.E0,0.E0,-1.E0));
#1500=AXIS2_PLACEMENT_3D('',#1497,#1498,#1499);
#1501=PLANE('',#1500);
#1502=ORIENTED_EDGE('',*,*,#1419,.F.);
#1503=ORIENTED_EDGE('',*,*,#1382,.T.);
#1504=ORIENTED_EDGE('',*,*,#1487,.T.);
#1506=ORIENTED_EDGE('',*,*,#1505,.F.);
#1507=EDGE_LOOP('',(#1502,#1503,#1504,#1506));
#1508=FACE_OUTER_BOUND('',#1507,.F.);
#1510=CARTESIAN_POINT('',(3.1115E-1,-3.1115E-1,-4.576E0));
#1511=DIRECTION('',(0.E0,0.E0,-1.E0));
#1512=DIRECTION('',(-1.E0,0.E0,0.E0));
#1513=AXIS2_PLACEMENT_3D('',#1510,#1511,#1512);
#1514=PLANE('',#1513);
#1515=ORIENTED_EDGE('',*,*,#1421,.F.);
#1516=ORIENTED_EDGE('',*,*,#1505,.T.);
#1517=ORIENTED_EDGE('',*,*,#1492,.T.);
#1519=ORIENTED_EDGE('',*,*,#1518,.F.);
#1520=EDGE_LOOP('',(#1515,#1516,#1517,#1519));
#1521=FACE_OUTER_BOUND('',#1520,.F.);
#1523=CARTESIAN_POINT('',(-3.1115E-1,-3.1115E-1,-4.576E0));
#1524=DIRECTION('',(-1.E0,0.E0,0.E0));
#1525=DIRECTION('',(0.E0,0.E0,1.E0));
#1526=AXIS2_PLACEMENT_3D('',#1523,#1524,#1525);
#1527=PLANE('',#1526);
#1528=ORIENTED_EDGE('',*,*,#1423,.F.);
#1529=ORIENTED_EDGE('',*,*,#1518,.T.);
#1530=ORIENTED_EDGE('',*,*,#1490,.T.);
#1531=ORIENTED_EDGE('',*,*,#1378,.F.);
#1532=EDGE_LOOP('',(#1528,#1529,#1530,#1531));
#1533=FACE_OUTER_BOUND('',#1532,.F.);
#1535=CARTESIAN_POINT('',(2.032E0,1.1684E0,-2.286E0));
#1536=DIRECTION('',(-1.E0,0.E0,0.E0));
#1537=DIRECTION('',(0.E0,0.E0,1.E0));
#1538=AXIS2_PLACEMENT_3D('',#1535,#1536,#1537);
#1539=PLANE('',#1538);
#1541=ORIENTED_EDGE('',*,*,#1540,.F.);
#1542=ORIENTED_EDGE('',*,*,#1264,.F.);
#1543=ORIENTED_EDGE('',*,*,#1194,.F.);
#1544=ORIENTED_EDGE('',*,*,#1089,.T.);
#1545=EDGE_LOOP('',(#1541,#1542,#1543,#1544));
#1546=FACE_OUTER_BOUND('',#1545,.F.);
#1548=CARTESIAN_POINT('',(2.032E0,1.1684E0,-1.651E0));
#1549=DIRECTION('',(0.E0,0.E0,1.E0));
#1550=DIRECTION('',(1.E0,0.E0,0.E0));
#1551=AXIS2_PLACEMENT_3D('',#1548,#1549,#1550);
#1552=PLANE('',#1551);
#1554=ORIENTED_EDGE('',*,*,#1553,.F.);
#1555=ORIENTED_EDGE('',*,*,#1266,.T.);
#1556=ORIENTED_EDGE('',*,*,#1540,.T.);
#1557=ORIENTED_EDGE('',*,*,#1087,.T.);
#1558=EDGE_LOOP('',(#1554,#1555,#1556,#1557));
#1559=FACE_OUTER_BOUND('',#1558,.F.);
#1561=ORIENTED_EDGE('',*,*,#1560,.T.);
#1563=ORIENTED_EDGE('',*,*,#1562,.T.);
#1565=ORIENTED_EDGE('',*,*,#1564,.F.);
#1567=ORIENTED_EDGE('',*,*,#1566,.F.);
#1568=EDGE_LOOP('',(#1561,#1563,#1565,#1567));
#1569=FACE_BOUND('',#1568,.F.);
#1571=CARTESIAN_POINT('',(3.048E0,1.1684E0,-1.651E0));
#1572=DIRECTION('',(1.E0,0.E0,0.E0));
#1573=DIRECTION('',(0.E0,0.E0,-1.E0));
#1574=AXIS2_PLACEMENT_3D('',#1571,#1572,#1573);
#1575=PLANE('',#1574);
#1576=ORIENTED_EDGE('',*,*,#1553,.T.);
#1577=ORIENTED_EDGE('',*,*,#1085,.F.);
#1578=ORIENTED_EDGE('',*,*,#1143,.T.);
#1579=ORIENTED_EDGE('',*,*,#1268,.T.);
#1580=EDGE_LOOP('',(#1576,#1577,#1578,#1579));
#1581=FACE_OUTER_BOUND('',#1580,.F.);
#1583=CARTESIAN_POINT('',(5.08E0,-3.1115E-1,0.E0));
#1584=DIRECTION('',(0.E0,1.E0,0.E0));
#1585=DIRECTION('',(-1.E0,0.E0,0.E0));
#1586=AXIS2_PLACEMENT_3D('',#1583,#1584,#1585);
#1587=PLANE('',#1586);
#1589=ORIENTED_EDGE('',*,*,#1588,.T.);
#1590=ORIENTED_EDGE('',*,*,#883,.T.);
#1592=ORIENTED_EDGE('',*,*,#1591,.T.);
#1594=ORIENTED_EDGE('',*,*,#1593,.T.);
#1595=EDGE_LOOP('',(#1589,#1590,#1592,#1594));
#1596=FACE_OUTER_BOUND('',#1595,.F.);
#1598=CARTESIAN_POINT('',(5.08E0,-3.1115E-1,0.E0));
#1599=DIRECTION('',(0.E0,1.E0,0.E0));
#1600=DIRECTION('',(-1.E0,0.E0,0.E0));
#1601=AXIS2_PLACEMENT_3D('',#1598,#1599,#1600);
#1602=PLANE('',#1601);
#1604=ORIENTED_EDGE('',*,*,#1603,.T.);
#1606=ORIENTED_EDGE('',*,*,#1605,.T.);
#1608=ORIENTED_EDGE('',*,*,#1607,.T.);
#1609=ORIENTED_EDGE('',*,*,#1560,.F.);
#1610=EDGE_LOOP('',(#1604,#1606,#1608,#1609));
#1611=FACE_OUTER_BOUND('',#1610,.F.);
#1613=CARTESIAN_POINT('',(2.85115E0,-3.1115E-1,5.84E0));
#1614=DIRECTION('',(1.E0,0.E0,0.E0));
#1615=DIRECTION('',(0.E0,0.E0,-1.E0));
#1616=AXIS2_PLACEMENT_3D('',#1613,#1614,#1615);
#1617=PLANE('',#1616);
#1618=ORIENTED_EDGE('',*,*,#1588,.F.);
#1620=ORIENTED_EDGE('',*,*,#1619,.T.);
#1622=ORIENTED_EDGE('',*,*,#1621,.T.);
#1623=ORIENTED_EDGE('',*,*,#885,.F.);
#1624=EDGE_LOOP('',(#1618,#1620,#1622,#1623));
#1625=FACE_OUTER_BOUND('',#1624,.F.);
#1627=CARTESIAN_POINT('',(2.22885E0,-3.1115E-1,5.84E0));
#1628=DIRECTION('',(0.E0,0.E0,1.E0));
#1629=DIRECTION('',(1.E0,0.E0,0.E0));
#1630=AXIS2_PLACEMENT_3D('',#1627,#1628,#1629);
#1631=PLANE('',#1630);
#1632=ORIENTED_EDGE('',*,*,#1593,.F.);
#1634=ORIENTED_EDGE('',*,*,#1633,.T.);
#1636=ORIENTED_EDGE('',*,*,#1635,.T.);
#1637=ORIENTED_EDGE('',*,*,#1619,.F.);
#1638=EDGE_LOOP('',(#1632,#1634,#1636,#1637));
#1639=FACE_OUTER_BOUND('',#1638,.F.);
#1641=CARTESIAN_POINT('',(2.22885E0,-3.1115E-1,0.E0));
#1642=DIRECTION('',(-1.E0,0.E0,0.E0));
#1643=DIRECTION('',(0.E0,0.E0,1.E0));
#1644=AXIS2_PLACEMENT_3D('',#1641,#1642,#1643);
#1645=PLANE('',#1644);
#1646=ORIENTED_EDGE('',*,*,#1591,.F.);
#1647=ORIENTED_EDGE('',*,*,#889,.T.);
#1649=ORIENTED_EDGE('',*,*,#1648,.T.);
#1650=ORIENTED_EDGE('',*,*,#1633,.F.);
#1651=EDGE_LOOP('',(#1646,#1647,#1649,#1650));
#1652=FACE_OUTER_BOUND('',#1651,.F.);
#1654=CARTESIAN_POINT('',(5.08E0,3.1115E-1,0.E0));
#1655=DIRECTION('',(0.E0,1.E0,0.E0));
#1656=DIRECTION('',(-1.E0,0.E0,0.E0));
#1657=AXIS2_PLACEMENT_3D('',#1654,#1655,#1656);
#1658=PLANE('',#1657);
#1659=ORIENTED_EDGE('',*,*,#1621,.F.);
#1660=ORIENTED_EDGE('',*,*,#1635,.F.);
#1661=ORIENTED_EDGE('',*,*,#1648,.F.);
#1662=ORIENTED_EDGE('',*,*,#887,.F.);
#1663=EDGE_LOOP('',(#1659,#1660,#1661,#1662));
#1664=FACE_OUTER_BOUND('',#1663,.F.);
#1666=CARTESIAN_POINT('',(5.08E0,3.1115E-1,0.E0));
#1667=DIRECTION('',(0.E0,1.E0,0.E0));
#1668=DIRECTION('',(-1.E0,0.E0,0.E0));
#1669=AXIS2_PLACEMENT_3D('',#1666,#1667,#1668);
#1670=PLANE('',#1669);
#1672=ORIENTED_EDGE('',*,*,#1671,.F.);
#1673=ORIENTED_EDGE('',*,*,#1564,.T.);
#1675=ORIENTED_EDGE('',*,*,#1674,.F.);
#1677=ORIENTED_EDGE('',*,*,#1676,.F.);
#1678=EDGE_LOOP('',(#1672,#1673,#1675,#1677));
#1679=FACE_OUTER_BOUND('',#1678,.F.);
#1681=CARTESIAN_POINT('',(2.85115E0,-3.1115E-1,-1.651E0));
#1682=DIRECTION('',(1.E0,0.E0,0.E0));
#1683=DIRECTION('',(0.E0,0.E0,-1.E0));
#1684=AXIS2_PLACEMENT_3D('',#1681,#1682,#1683);
#1685=PLANE('',#1684);
#1686=ORIENTED_EDGE('',*,*,#1603,.F.);
#1687=ORIENTED_EDGE('',*,*,#1566,.T.);
#1688=ORIENTED_EDGE('',*,*,#1671,.T.);
#1690=ORIENTED_EDGE('',*,*,#1689,.F.);
#1691=EDGE_LOOP('',(#1686,#1687,#1688,#1690));
#1692=FACE_OUTER_BOUND('',#1691,.F.);
#1694=CARTESIAN_POINT('',(2.85115E0,-3.1115E-1,-4.576E0));
#1695=DIRECTION('',(0.E0,0.E0,-1.E0));
#1696=DIRECTION('',(-1.E0,0.E0,0.E0));
#1697=AXIS2_PLACEMENT_3D('',#1694,#1695,#1696);
#1698=PLANE('',#1697);
#1699=ORIENTED_EDGE('',*,*,#1605,.F.);
#1700=ORIENTED_EDGE('',*,*,#1689,.T.);
#1701=ORIENTED_EDGE('',*,*,#1676,.T.);
#1703=ORIENTED_EDGE('',*,*,#1702,.F.);
#1704=EDGE_LOOP('',(#1699,#1700,#1701,#1703));
#1705=FACE_OUTER_BOUND('',#1704,.F.);
#1707=CARTESIAN_POINT('',(2.22885E0,-3.1115E-1,-4.576E0));
#1708=DIRECTION('',(-1.E0,0.E0,0.E0));
#1709=DIRECTION('',(0.E0,0.E0,1.E0));
#1710=AXIS2_PLACEMENT_3D('',#1707,#1708,#1709);
#1711=PLANE('',#1710);
#1712=ORIENTED_EDGE('',*,*,#1607,.F.);
#1713=ORIENTED_EDGE('',*,*,#1702,.T.);
#1714=ORIENTED_EDGE('',*,*,#1674,.T.);
#1715=ORIENTED_EDGE('',*,*,#1562,.F.);
#1716=EDGE_LOOP('',(#1712,#1713,#1714,#1715));
#1717=FACE_OUTER_BOUND('',#1716,.F.);
#1719=CARTESIAN_POINT('',(3.6068E0,-1.1684E0,0.E0));
#1720=DIRECTION('',(1.E0,0.E0,0.E0));
#1721=DIRECTION('',(0.E0,1.E0,0.E0));
#1722=AXIS2_PLACEMENT_3D('',#1719,#1720,#1721);
#1723=PLANE('',#1722);
#1724=ORIENTED_EDGE('',*,*,#845,.T.);
#1725=ORIENTED_EDGE('',*,*,#1271,.T.);
#1726=ORIENTED_EDGE('',*,*,#1146,.F.);
#1727=ORIENTED_EDGE('',*,*,#1081,.F.);
#1728=EDGE_LOOP('',(#1724,#1725,#1726,#1727));
#1729=FACE_OUTER_BOUND('',#1728,.F.);
#1731=CARTESIAN_POINT('',(1.27E0,-8.128E-1,0.E0));
#1732=DIRECTION('',(-8.660254037845E-1,4.999999999999E-1,0.E0));
#1733=DIRECTION('',(-4.999999999999E-1,-8.660254037845E-1,0.E0));
#1734=AXIS2_PLACEMENT_3D('',#1731,#1732,#1733);
#1735=PLANE('',#1734);
#1736=ORIENTED_EDGE('',*,*,#851,.F.);
#1738=ORIENTED_EDGE('',*,*,#1737,.T.);
#1739=ORIENTED_EDGE('',*,*,#1189,.T.);
#1740=ORIENTED_EDGE('',*,*,#1055,.T.);
#1741=EDGE_LOOP('',(#1736,#1738,#1739,#1740));
#1742=FACE_OUTER_BOUND('',#1741,.F.);
#1744=CARTESIAN_POINT('',(1.475305755724E0,-1.1684E0,0.E0));
#1745=DIRECTION('',(8.660254037845E-1,4.999999999999E-1,0.E0));
#1746=DIRECTION('',(-4.999999999999E-1,8.660254037845E-1,0.E0));
#1747=AXIS2_PLACEMENT_3D('',#1744,#1745,#1746);
#1748=PLANE('',#1747);
#1749=ORIENTED_EDGE('',*,*,#849,.F.);
#1750=ORIENTED_EDGE('',*,*,#1078,.F.);
#1751=ORIENTED_EDGE('',*,*,#1191,.T.);
#1752=ORIENTED_EDGE('',*,*,#1737,.F.);
#1753=EDGE_LOOP('',(#1749,#1750,#1751,#1752));
#1754=FACE_OUTER_BOUND('',#1753,.F.);
#1756=CARTESIAN_POINT('',(-2.85115E0,-3.1115E-1,-4.576E0));
#1757=DIRECTION('',(-1.E0,0.E0,0.E0));
#1758=DIRECTION('',(0.E0,0.E0,1.E0));
#1759=AXIS2_PLACEMENT_3D('',#1756,#1757,#1758);
#1760=PLANE('',#1759);
#1761=ORIENTED_EDGE('',*,*,#1020,.F.);
#1762=ORIENTED_EDGE('',*,*,#930,.F.);
#1764=ORIENTED_EDGE('',*,*,#1763,.T.);
#1765=ORIENTED_EDGE('',*,*,#970,.T.);
#1766=EDGE_LOOP('',(#1761,#1762,#1764,#1765));
#1767=FACE_OUTER_BOUND('',#1766,.F.);
#1769=CARTESIAN_POINT('',(-2.22885E0,-3.1115E-1,-4.576E0));
#1770=DIRECTION('',(0.E0,0.E0,-1.E0));
#1771=DIRECTION('',(-1.E0,0.E0,0.E0));
#1772=AXIS2_PLACEMENT_3D('',#1769,#1770,#1771);
#1773=PLANE('',#1772);
#1774=ORIENTED_EDGE('',*,*,#928,.F.);
#1776=ORIENTED_EDGE('',*,*,#1775,.T.);
#1777=ORIENTED_EDGE('',*,*,#972,.T.);
#1778=ORIENTED_EDGE('',*,*,#1763,.F.);
#1779=EDGE_LOOP('',(#1774,#1776,#1777,#1778));
#1780=FACE_OUTER_BOUND('',#1779,.F.);
#1782=CARTESIAN_POINT('',(-2.22885E0,-3.1115E-1,-1.651E0));
#1783=DIRECTION('',(1.E0,0.E0,0.E0));
#1784=DIRECTION('',(0.E0,0.E0,-1.E0));
#1785=AXIS2_PLACEMENT_3D('',#1782,#1783,#1784);
#1786=PLANE('',#1785);
#1787=ORIENTED_EDGE('',*,*,#1023,.T.);
#1788=ORIENTED_EDGE('',*,*,#974,.T.);
#1789=ORIENTED_EDGE('',*,*,#1775,.F.);
#1790=ORIENTED_EDGE('',*,*,#926,.F.);
#1791=EDGE_LOOP('',(#1787,#1788,#1789,#1790));
#1792=FACE_OUTER_BOUND('',#1791,.F.);
#1794=CLOSED_SHELL('',(#903,#918,#934,#948,#962,#978,#991,#1003,#1027,#1049,
#1072,#1095,#1109,#1122,#1137,#1152,#1176,#1202,#1215,#1234,#1255,#1276,#1289,
#1301,#1313,#1325,#1338,#1350,#1363,#1386,#1398,#1413,#1428,#1442,#1456,#1469,
#1481,#1496,#1509,#1522,#1534,#1547,#1570,#1582,#1597,#1612,#1626,#1640,#1653,
#1665,#1680,#1693,#1706,#1718,#1730,#1743,#1755,#1768,#1781,#1793));
#1795=MANIFOLD_SOLID_BREP('',#1794);
#1798=PLANE_ANGLE_MEASURE_WITH_UNIT(PLANE_ANGLE_MEASURE(1.745329251994E-2),
#1797);
#1799=(CONVERSION_BASED_UNIT('DEGREE',#1798)NAMED_UNIT(*)PLANE_ANGLE_UNIT());
#1801=UNCERTAINTY_MEASURE_WITH_UNIT(LENGTH_MEASURE(1.288318424491E-3),#1796,
'distance_accuracy_value',
'Maximum model space distance between geometric entities at asserted connectivities');
#1804=APPLICATION_CONTEXT('automotive_design');
#1805=APPLICATION_PROTOCOL_DEFINITION('international standard',
'automotive_design',2001,#1804);
#1806=PRODUCT_DEFINITION_CONTEXT('part definition',#1804,'design');
#1807=PRODUCT_CONTEXT('',#1804,'mechanical');
#1808=PRODUCT('C-5-146285-3','C-5-146285-3','NOT SPECIFIED',(#1807));
#1809=PRODUCT_DEFINITION_FORMATION('1','LAST_VERSION',#1808);
#1817=DERIVED_UNIT_ELEMENT(#1816,2.E0);
#1818=DERIVED_UNIT((#1817));
#1819=MEASURE_REPRESENTATION_ITEM('surface area measure',AREA_MEASURE(
1.510342496068E2),#1818);
#1824=DERIVED_UNIT_ELEMENT(#1823,3.E0);
#1825=DERIVED_UNIT((#1824));
#1826=MEASURE_REPRESENTATION_ITEM('volume measure',VOLUME_MEASURE(
4.352703600456E1),#1825);
#1830=CARTESIAN_POINT('centre point',(0.E0,0.E0,-5.777442627291E-1));
#1835=DERIVED_UNIT_ELEMENT(#1834,2.E0);
#1836=DERIVED_UNIT((#1835));
#1837=MEASURE_REPRESENTATION_ITEM('surface area measure',AREA_MEASURE(
1.510342496068E2),#1836);
#1842=DERIVED_UNIT_ELEMENT(#1841,3.E0);
#1843=DERIVED_UNIT((#1842));
#1844=MEASURE_REPRESENTATION_ITEM('volume measure',VOLUME_MEASURE(
4.352703600456E1),#1843);
#1848=CARTESIAN_POINT('centre point',(0.E0,0.E0,-5.777442627291E-1));
#1853=PRODUCT_RELATED_PRODUCT_CATEGORY('part','',(#1808));
#1=COLOUR_RGB('',8.784E-1,9.49E-1,1.E0);
#839=EDGE_CURVE('',#668,#669,#53,.T.);
#841=EDGE_CURVE('',#669,#671,#57,.T.);
#843=EDGE_CURVE('',#633,#671,#61,.T.);
#845=EDGE_CURVE('',#632,#633,#65,.T.);
#847=EDGE_CURVE('',#677,#632,#69,.T.);
#849=EDGE_CURVE('',#677,#674,#73,.T.);
#851=EDGE_CURVE('',#674,#675,#77,.T.);
#853=EDGE_CURVE('',#653,#675,#81,.T.);
#855=EDGE_CURVE('',#653,#650,#85,.T.);
#857=EDGE_CURVE('',#650,#651,#89,.T.);
#859=EDGE_CURVE('',#629,#651,#93,.T.);
#861=EDGE_CURVE('',#628,#629,#97,.T.);
#863=EDGE_CURVE('',#644,#628,#101,.T.);
#865=EDGE_CURVE('',#644,#645,#105,.T.);
#867=EDGE_CURVE('',#645,#647,#109,.T.);
#869=EDGE_CURVE('',#668,#647,#113,.T.);
#873=EDGE_CURVE('',#763,#765,#21,.T.);
#875=EDGE_CURVE('',#763,#771,#25,.T.);
#877=EDGE_CURVE('',#771,#773,#29,.T.);
#879=EDGE_CURVE('',#765,#773,#33,.T.);
#883=EDGE_CURVE('',#803,#805,#37,.T.);
#885=EDGE_CURVE('',#803,#811,#41,.T.);
#887=EDGE_CURVE('',#811,#813,#45,.T.);
#889=EDGE_CURVE('',#805,#813,#49,.T.);
#893=EDGE_CURVE('',#716,#717,#5,.T.);
#895=EDGE_CURVE('',#716,#720,#9,.T.);
#897=EDGE_CURVE('',#720,#721,#13,.T.);
#899=EDGE_CURVE('',#717,#721,#17,.T.);
#903=ADVANCED_FACE('',(#872,#882,#892,#902),#838,.T.);
#910=EDGE_CURVE('',#717,#700,#117,.T.);
#912=EDGE_CURVE('',#700,#701,#121,.T.);
#914=EDGE_CURVE('',#701,#716,#125,.T.);
#918=ADVANCED_FACE('',(#917),#908,.F.);
#924=EDGE_CURVE('',#724,#725,#177,.T.);
#926=EDGE_CURVE('',#724,#704,#129,.T.);
#928=EDGE_CURVE('',#704,#705,#133,.T.);
#930=EDGE_CURVE('',#705,#725,#137,.T.);
#934=ADVANCED_FACE('',(#933),#923,.F.);
#941=EDGE_CURVE('',#721,#708,#149,.T.);
#943=EDGE_CURVE('',#700,#708,#169,.T.);
#948=ADVANCED_FACE('',(#947),#939,.T.);
#955=EDGE_CURVE('',#709,#720,#141,.T.);
#957=EDGE_CURVE('',#708,#709,#145,.T.);
#962=ADVANCED_FACE('',(#961),#953,.T.);
#968=EDGE_CURVE('',#728,#729,#185,.T.);
#970=EDGE_CURVE('',#713,#729,#153,.T.);
#972=EDGE_CURVE('',#712,#713,#157,.T.);
#974=EDGE_CURVE('',#728,#712,#161,.T.);
#978=ADVANCED_FACE('',(#977),#967,.T.);
#986=EDGE_CURVE('',#701,#709,#165,.T.);
#991=ADVANCED_FACE('',(#990),#983,.T.);
#1003=ADVANCED_FACE('',(#1002),#996,.T.);
#1009=EDGE_CURVE('',#692,#693,#201,.T.);
#1011=EDGE_CURVE('',#696,#692,#429,.T.);
#1013=EDGE_CURVE('',#696,#697,#373,.T.);
#1015=EDGE_CURVE('',#697,#693,#173,.T.);
#1020=EDGE_CURVE('',#725,#729,#181,.T.);
#1023=EDGE_CURVE('',#724,#728,#189,.T.);
#1027=ADVANCED_FACE('',(#1018,#1026),#1008,.F.);
#1033=EDGE_CURVE('',#663,#651,#193,.T.);
#1035=EDGE_CURVE('',#736,#663,#297,.T.);
#1037=EDGE_CURVE('',#736,#692,#197,.T.);
#1040=EDGE_CURVE('',#731,#693,#205,.T.);
#1042=EDGE_CURVE('',#637,#731,#253,.T.);
#1044=EDGE_CURVE('',#629,#637,#209,.T.);
#1049=ADVANCED_FACE('',(#1048),#1032,.T.);
#1055=EDGE_CURVE('',#687,#675,#213,.T.);
#1057=EDGE_CURVE('',#820,#687,#337,.T.);
#1059=EDGE_CURVE('',#820,#741,#217,.T.);
#1061=EDGE_CURVE('',#745,#741,#221,.T.);
#1063=EDGE_CURVE('',#824,#745,#225,.T.);
#1065=EDGE_CURVE('',#665,#824,#309,.T.);
#1067=EDGE_CURVE('',#665,#653,#229,.T.);
#1072=ADVANCED_FACE('',(#1071),#1054,.T.);
#1078=EDGE_CURVE('',#689,#677,#233,.T.);
#1081=EDGE_CURVE('',#632,#640,#613,.T.);
#1083=EDGE_CURVE('',#828,#640,#273,.T.);
#1085=EDGE_CURVE('',#828,#781,#237,.T.);
#1087=EDGE_CURVE('',#785,#781,#241,.T.);
#1089=EDGE_CURVE('',#832,#785,#245,.T.);
#1091=EDGE_CURVE('',#689,#832,#349,.T.);
#1095=ADVANCED_FACE('',(#1094),#1077,.T.);
#1102=EDGE_CURVE('',#650,#662,#249,.T.);
#1104=EDGE_CURVE('',#662,#663,#301,.T.);
#1109=ADVANCED_FACE('',(#1108),#1100,.F.);
#1117=EDGE_CURVE('',#665,#662,#305,.T.);
#1122=ADVANCED_FACE('',(#1121),#1114,.F.);
#1129=EDGE_CURVE('',#731,#733,#257,.T.);
#1131=EDGE_CURVE('',#733,#636,#261,.T.);
#1133=EDGE_CURVE('',#636,#637,#265,.T.);
#1137=ADVANCED_FACE('',(#1136),#1127,.F.);
#1143=EDGE_CURVE('',#828,#829,#269,.T.);
#1146=EDGE_CURVE('',#640,#641,#277,.T.);
#1148=EDGE_CURVE('',#641,#829,#281,.T.);
#1152=ADVANCED_FACE('',(#1151),#1142,.F.);
#1158=EDGE_CURVE('',#656,#657,#285,.T.);
#1160=EDGE_CURVE('',#656,#737,#289,.T.);
#1162=EDGE_CURVE('',#736,#737,#293,.T.);
#1168=EDGE_CURVE('',#824,#825,#313,.T.);
#1170=EDGE_CURVE('',#825,#659,#317,.T.);
#1172=EDGE_CURVE('',#657,#659,#321,.T.);
#1176=ADVANCED_FACE('',(#1175),#1157,.F.);
#1182=EDGE_CURVE('',#680,#681,#325,.T.);
#1184=EDGE_CURVE('',#680,#821,#329,.T.);
#1186=EDGE_CURVE('',#820,#821,#333,.T.);
#1189=EDGE_CURVE('',#686,#687,#341,.T.);
#1191=EDGE_CURVE('',#689,#686,#345,.T.);
#1194=EDGE_CURVE('',#832,#833,#353,.T.);
#1196=EDGE_CURVE('',#833,#683,#357,.T.);
#1198=EDGE_CURVE('',#681,#683,#361,.T.);
#1202=ADVANCED_FACE('',(#1201),#1181,.F.);
#1211=EDGE_CURVE('',#733,#697,#369,.T.);
#1215=ADVANCED_FACE('',(#1214),#1207,.F.);
#1221=EDGE_CURVE('',#656,#644,#365,.T.);
#1224=EDGE_CURVE('',#628,#636,#425,.T.);
#1229=EDGE_CURVE('',#737,#696,#377,.T.);
#1234=ADVANCED_FACE('',(#1233),#1220,.T.);
#1240=EDGE_CURVE('',#680,#668,#381,.T.);
#1243=EDGE_CURVE('',#659,#647,#385,.T.);
#1246=EDGE_CURVE('',#825,#744,#389,.T.);
#1248=EDGE_CURVE('',#740,#744,#393,.T.);
#1250=EDGE_CURVE('',#821,#740,#397,.T.);
#1255=ADVANCED_FACE('',(#1254),#1239,.T.);
#1261=EDGE_CURVE('',#683,#671,#401,.T.);
#1264=EDGE_CURVE('',#833,#784,#405,.T.);
#1266=EDGE_CURVE('',#780,#784,#409,.T.);
#1268=EDGE_CURVE('',#829,#780,#413,.T.);
#1271=EDGE_CURVE('',#633,#641,#417,.T.);
#1276=ADVANCED_FACE('',(#1275),#1260,.T.);
#1285=EDGE_CURVE('',#645,#657,#421,.T.);
#1289=ADVANCED_FACE('',(#1288),#1281,.F.);
#1301=ADVANCED_FACE('',(#1300),#1294,.F.);
#1313=ADVANCED_FACE('',(#1312),#1306,.T.);
#1325=ADVANCED_FACE('',(#1324),#1318,.F.);
#1334=EDGE_CURVE('',#669,#681,#433,.T.);
#1338=ADVANCED_FACE('',(#1337),#1330,.F.);
#1350=ADVANCED_FACE('',(#1349),#1343,.F.);
#1356=EDGE_CURVE('',#744,#745,#437,.T.);
#1363=ADVANCED_FACE('',(#1362),#1355,.F.);
#1369=EDGE_CURVE('',#740,#741,#457,.T.);
#1376=EDGE_CURVE('',#767,#769,#441,.T.);
#1378=EDGE_CURVE('',#769,#777,#445,.T.);
#1380=EDGE_CURVE('',#775,#777,#449,.T.);
#1382=EDGE_CURVE('',#767,#775,#453,.T.);
#1386=ADVANCED_FACE('',(#1375,#1385),#1368,.F.);
#1398=ADVANCED_FACE('',(#1397),#1391,.F.);
#1404=EDGE_CURVE('',#749,#763,#461,.T.);
#1407=EDGE_CURVE('',#765,#748,#465,.T.);
#1409=EDGE_CURVE('',#748,#749,#469,.T.);
#1413=ADVANCED_FACE('',(#1412),#1403,.F.);
#1419=EDGE_CURVE('',#767,#752,#473,.T.);
#1421=EDGE_CURVE('',#752,#753,#477,.T.);
#1423=EDGE_CURVE('',#753,#769,#481,.T.);
#1428=ADVANCED_FACE('',(#1427),#1418,.F.);
#1435=EDGE_CURVE('',#749,#757,#485,.T.);
#1437=EDGE_CURVE('',#757,#771,#493,.T.);
#1442=ADVANCED_FACE('',(#1441),#1433,.T.);
#1449=EDGE_CURVE('',#748,#756,#489,.T.);
#1451=EDGE_CURVE('',#756,#757,#497,.T.);
#1456=ADVANCED_FACE('',(#1455),#1447,.T.);
#1464=EDGE_CURVE('',#773,#756,#501,.T.);
#1469=ADVANCED_FACE('',(#1468),#1461,.T.);
#1481=ADVANCED_FACE('',(#1480),#1474,.T.);
#1487=EDGE_CURVE('',#775,#760,#505,.T.);
#1490=EDGE_CURVE('',#761,#777,#509,.T.);
#1492=EDGE_CURVE('',#760,#761,#513,.T.);
#1496=ADVANCED_FACE('',(#1495),#1486,.T.);
#1505=EDGE_CURVE('',#752,#760,#517,.T.);
#1509=ADVANCED_FACE('',(#1508),#1501,.T.);
#1518=EDGE_CURVE('',#753,#761,#521,.T.);
#1522=ADVANCED_FACE('',(#1521),#1514,.T.);
#1534=ADVANCED_FACE('',(#1533),#1527,.T.);
#1540=EDGE_CURVE('',#784,#785,#525,.T.);
#1547=ADVANCED_FACE('',(#1546),#1539,.F.);
#1553=EDGE_CURVE('',#780,#781,#545,.T.);
#1560=EDGE_CURVE('',#807,#809,#529,.T.);
#1562=EDGE_CURVE('',#809,#817,#533,.T.);
#1564=EDGE_CURVE('',#815,#817,#537,.T.);
#1566=EDGE_CURVE('',#807,#815,#541,.T.);
#1570=ADVANCED_FACE('',(#1559,#1569),#1552,.F.);
#1582=ADVANCED_FACE('',(#1581),#1575,.F.);
#1588=EDGE_CURVE('',#789,#803,#549,.T.);
#1591=EDGE_CURVE('',#805,#788,#553,.T.);
#1593=EDGE_CURVE('',#788,#789,#557,.T.);
#1597=ADVANCED_FACE('',(#1596),#1587,.F.);
#1603=EDGE_CURVE('',#807,#792,#561,.T.);
#1605=EDGE_CURVE('',#792,#793,#565,.T.);
#1607=EDGE_CURVE('',#793,#809,#569,.T.);
#1612=ADVANCED_FACE('',(#1611),#1602,.F.);
#1619=EDGE_CURVE('',#789,#797,#573,.T.);
#1621=EDGE_CURVE('',#797,#811,#581,.T.);
#1626=ADVANCED_FACE('',(#1625),#1617,.T.);
#1633=EDGE_CURVE('',#788,#796,#577,.T.);
#1635=EDGE_CURVE('',#796,#797,#585,.T.);
#1640=ADVANCED_FACE('',(#1639),#1631,.T.);
#1648=EDGE_CURVE('',#813,#796,#589,.T.);
#1653=ADVANCED_FACE('',(#1652),#1645,.T.);
#1665=ADVANCED_FACE('',(#1664),#1658,.T.);
#1671=EDGE_CURVE('',#815,#800,#593,.T.);
#1674=EDGE_CURVE('',#801,#817,#597,.T.);
#1676=EDGE_CURVE('',#800,#801,#601,.T.);
#1680=ADVANCED_FACE('',(#1679),#1670,.T.);
#1689=EDGE_CURVE('',#792,#800,#605,.T.);
#1693=ADVANCED_FACE('',(#1692),#1685,.T.);
#1702=EDGE_CURVE('',#793,#801,#609,.T.);
#1706=ADVANCED_FACE('',(#1705),#1698,.T.);
#1718=ADVANCED_FACE('',(#1717),#1711,.T.);
#1730=ADVANCED_FACE('',(#1729),#1723,.T.);
#1737=EDGE_CURVE('',#674,#686,#617,.T.);
#1743=ADVANCED_FACE('',(#1742),#1735,.F.);
#1755=ADVANCED_FACE('',(#1754),#1748,.F.);
#1763=EDGE_CURVE('',#705,#713,#621,.T.);
#1768=ADVANCED_FACE('',(#1767),#1760,.T.);
#1775=EDGE_CURVE('',#704,#712,#625,.T.);
#1781=ADVANCED_FACE('',(#1780),#1773,.T.);
#1793=ADVANCED_FACE('',(#1792),#1786,.T.);
#1796=(LENGTH_UNIT()NAMED_UNIT(*)SI_UNIT(.MILLI.,.METRE.));
#1797=(NAMED_UNIT(*)PLANE_ANGLE_UNIT()SI_UNIT($,.RADIAN.));
#1800=(NAMED_UNIT(*)SI_UNIT($,.STERADIAN.)SOLID_ANGLE_UNIT());
#1802=(GEOMETRIC_REPRESENTATION_CONTEXT(3)GLOBAL_UNCERTAINTY_ASSIGNED_CONTEXT((
#1801))GLOBAL_UNIT_ASSIGNED_CONTEXT((#1796,#1799,#1800))REPRESENTATION_CONTEXT(
'ID1','3'));
#1803=ADVANCED_BREP_SHAPE_REPRESENTATION('',(#1795),#1802);
#1810=PRODUCT_DEFINITION('part definition','',#1809,#1806);
#1811=PRODUCT_DEFINITION_SHAPE('','SHAPE FOR C-5-146285-3.',#1810);
#1812=SHAPE_ASPECT('','solid data associated with C-5-146285-3',#1811,.F.);
#1813=PROPERTY_DEFINITION('',
'shape for solid data with which properties are associated',#1812);
#1814=SHAPE_REPRESENTATION('',(#1795),#1802);
#1815=SHAPE_DEFINITION_REPRESENTATION(#1813,#1814);
#1816=(LENGTH_UNIT()NAMED_UNIT(*)SI_UNIT(.MILLI.,.METRE.));
#1820=PROPERTY_DEFINITION('geometric validation property',
'area of C-5-146285-3',#1812);
#1821=REPRESENTATION('surface area',(#1819),#1802);
#1822=PROPERTY_DEFINITION_REPRESENTATION(#1820,#1821);
#1823=(LENGTH_UNIT()NAMED_UNIT(*)SI_UNIT(.MILLI.,.METRE.));
#1827=PROPERTY_DEFINITION('geometric validation property',
'volume of C-5-146285-3',#1812);
#1828=REPRESENTATION('volume',(#1826),#1802);
#1829=PROPERTY_DEFINITION_REPRESENTATION(#1827,#1828);
#1831=PROPERTY_DEFINITION('geometric validation property',
'centroid of C-5-146285-3',#1812);
#1832=REPRESENTATION('centroid',(#1830),#1802);
#1833=PROPERTY_DEFINITION_REPRESENTATION(#1831,#1832);
#1834=(LENGTH_UNIT()NAMED_UNIT(*)SI_UNIT(.MILLI.,.METRE.));
#1838=PROPERTY_DEFINITION('geometric validation property',
'area of C-5-146285-3',#1811);
#1839=REPRESENTATION('surface area',(#1837),#1802);
#1840=PROPERTY_DEFINITION_REPRESENTATION(#1838,#1839);
#1841=(LENGTH_UNIT()NAMED_UNIT(*)SI_UNIT(.MILLI.,.METRE.));
#1845=PROPERTY_DEFINITION('geometric validation property',
'volume of C-5-146285-3',#1811);
#1846=REPRESENTATION('volume',(#1844),#1802);
#1847=PROPERTY_DEFINITION_REPRESENTATION(#1845,#1846);
#1849=PROPERTY_DEFINITION('geometric validation property',
'centroid of C-5-146285-3',#1811);
#1850=REPRESENTATION('centroid',(#1848),#1802);
#1851=PROPERTY_DEFINITION_REPRESENTATION(#1849,#1850);
#1852=SHAPE_DEFINITION_REPRESENTATION(#1811,#1803);
ENDSEC;
END-ISO-10303-21;
