ISO-10303-21;
HEADER;
FILE_DESCRIPTION((''),'2;1');
FILE_NAME('C-5-146282-1','2016-09-15T',('workeradm'),('Tyco Electronics Ltd.'),
'CREO PARAMETRIC BY PTC INC, 2016050','CREO PARAMETRIC BY PTC INC, 2016050','');
FILE_SCHEMA(('AUTOMOTIVE_DESIGN { 1 0 10303 214 1 1 1 1 }'));
ENDSEC;
DATA;
#134=DIRECTION('',(0.E0,0.E0,1.E0));
#135=VECTOR('',#134,6.35E-1);
#136=CARTESIAN_POINT('',(-5.08E-1,1.1684E0,-2.286E0));
#137=LINE('',#136,#135);
#138=DIRECTION('',(1.E0,0.E0,0.E0));
#139=VECTOR('',#138,1.016E0);
#140=CARTESIAN_POINT('',(-5.08E-1,1.1684E0,-1.651E0));
#141=LINE('',#140,#139);
#142=DIRECTION('',(0.E0,0.E0,1.E0));
#143=VECTOR('',#142,6.35E-1);
#144=CARTESIAN_POINT('',(5.08E-1,1.1684E0,-2.286E0));
#145=LINE('',#144,#143);
#146=DIRECTION('',(1.E0,0.E0,0.E0));
#147=VECTOR('',#146,5.588E-1);
#148=CARTESIAN_POINT('',(5.08E-1,1.1684E0,-2.286E0));
#149=LINE('',#148,#147);
#150=DIRECTION('',(0.E0,0.E0,1.E0));
#151=VECTOR('',#150,2.286E0);
#152=CARTESIAN_POINT('',(1.0668E0,1.1684E0,-2.286E0));
#153=LINE('',#152,#151);
#154=DIRECTION('',(-1.E0,0.E0,0.E0));
#155=VECTOR('',#154,2.1336E0);
#156=CARTESIAN_POINT('',(1.0668E0,1.1684E0,0.E0));
#157=LINE('',#156,#155);
#158=DIRECTION('',(0.E0,0.E0,-1.E0));
#159=VECTOR('',#158,2.286E0);
#160=CARTESIAN_POINT('',(-1.0668E0,1.1684E0,0.E0));
#161=LINE('',#160,#159);
#162=DIRECTION('',(1.E0,0.E0,0.E0));
#163=VECTOR('',#162,5.588E-1);
#164=CARTESIAN_POINT('',(-1.0668E0,1.1684E0,-2.286E0));
#165=LINE('',#164,#163);
#166=DIRECTION('',(0.E0,-1.E0,0.E0));
#167=VECTOR('',#166,2.3368E0);
#168=CARTESIAN_POINT('',(-5.08E-1,1.1684E0,-2.286E0));
#169=LINE('',#168,#167);
#170=DIRECTION('',(0.E0,-1.E0,0.E0));
#171=VECTOR('',#170,2.3368E0);
#172=CARTESIAN_POINT('',(-1.0668E0,1.1684E0,-2.286E0));
#173=LINE('',#172,#171);
#174=DIRECTION('',(0.E0,-1.E0,0.E0));
#175=VECTOR('',#174,2.3368E0);
#176=CARTESIAN_POINT('',(5.08E-1,1.1684E0,-2.286E0));
#177=LINE('',#176,#175);
#178=DIRECTION('',(0.E0,-1.E0,0.E0));
#179=VECTOR('',#178,2.3368E0);
#180=CARTESIAN_POINT('',(-1.0668E0,1.1684E0,0.E0));
#181=LINE('',#180,#179);
#182=DIRECTION('',(0.E0,-1.E0,0.E0));
#183=VECTOR('',#182,2.3368E0);
#184=CARTESIAN_POINT('',(1.0668E0,1.1684E0,0.E0));
#185=LINE('',#184,#183);
#186=DIRECTION('',(0.E0,1.E0,0.E0));
#187=VECTOR('',#186,6.223E-1);
#188=CARTESIAN_POINT('',(-3.1115E-1,-3.1115E-1,0.E0));
#189=LINE('',#188,#187);
#190=DIRECTION('',(1.E0,0.E0,0.E0));
#191=VECTOR('',#190,6.223E-1);
#192=CARTESIAN_POINT('',(-3.1115E-1,-3.1115E-1,0.E0));
#193=LINE('',#192,#191);
#194=DIRECTION('',(0.E0,1.E0,0.E0));
#195=VECTOR('',#194,6.223E-1);
#196=CARTESIAN_POINT('',(3.1115E-1,-3.1115E-1,0.E0));
#197=LINE('',#196,#195);
#198=DIRECTION('',(1.E0,0.E0,0.E0));
#199=VECTOR('',#198,6.223E-1);
#200=CARTESIAN_POINT('',(-3.1115E-1,3.1115E-1,0.E0));
#201=LINE('',#200,#199);
#202=DIRECTION('',(0.E0,-1.E0,0.E0));
#203=VECTOR('',#202,2.3368E0);
#204=CARTESIAN_POINT('',(1.0668E0,1.1684E0,-2.286E0));
#205=LINE('',#204,#203);
#206=DIRECTION('',(0.E0,0.E0,1.E0));
#207=VECTOR('',#206,6.35E-1);
#208=CARTESIAN_POINT('',(-5.08E-1,-1.1684E0,-2.286E0));
#209=LINE('',#208,#207);
#210=DIRECTION('',(1.E0,0.E0,0.E0));
#211=VECTOR('',#210,5.588E-1);
#212=CARTESIAN_POINT('',(-1.0668E0,-1.1684E0,-2.286E0));
#213=LINE('',#212,#211);
#214=DIRECTION('',(0.E0,0.E0,-1.E0));
#215=VECTOR('',#214,2.286E0);
#216=CARTESIAN_POINT('',(-1.0668E0,-1.1684E0,0.E0));
#217=LINE('',#216,#215);
#218=DIRECTION('',(-1.E0,0.E0,0.E0));
#219=VECTOR('',#218,2.1336E0);
#220=CARTESIAN_POINT('',(1.0668E0,-1.1684E0,0.E0));
#221=LINE('',#220,#219);
#222=DIRECTION('',(0.E0,0.E0,1.E0));
#223=VECTOR('',#222,2.286E0);
#224=CARTESIAN_POINT('',(1.0668E0,-1.1684E0,-2.286E0));
#225=LINE('',#224,#223);
#226=DIRECTION('',(1.E0,0.E0,0.E0));
#227=VECTOR('',#226,5.588E-1);
#228=CARTESIAN_POINT('',(5.08E-1,-1.1684E0,-2.286E0));
#229=LINE('',#228,#227);
#230=DIRECTION('',(0.E0,0.E0,1.E0));
#231=VECTOR('',#230,6.35E-1);
#232=CARTESIAN_POINT('',(5.08E-1,-1.1684E0,-2.286E0));
#233=LINE('',#232,#231);
#234=DIRECTION('',(1.E0,0.E0,0.E0));
#235=VECTOR('',#234,1.016E0);
#236=CARTESIAN_POINT('',(-5.08E-1,-1.1684E0,-1.651E0));
#237=LINE('',#236,#235);
#238=DIRECTION('',(0.E0,-1.E0,0.E0));
#239=VECTOR('',#238,2.3368E0);
#240=CARTESIAN_POINT('',(5.08E-1,1.1684E0,-1.651E0));
#241=LINE('',#240,#239);
#242=DIRECTION('',(0.E0,-1.E0,0.E0));
#243=VECTOR('',#242,2.3368E0);
#244=CARTESIAN_POINT('',(-5.08E-1,1.1684E0,-1.651E0));
#245=LINE('',#244,#243);
#246=DIRECTION('',(0.E0,1.E0,0.E0));
#247=VECTOR('',#246,6.223E-1);
#248=CARTESIAN_POINT('',(-3.1115E-1,-3.1115E-1,-1.651E0));
#249=LINE('',#248,#247);
#250=DIRECTION('',(1.E0,0.E0,0.E0));
#251=VECTOR('',#250,6.223E-1);
#252=CARTESIAN_POINT('',(-3.1115E-1,3.1115E-1,-1.651E0));
#253=LINE('',#252,#251);
#254=DIRECTION('',(0.E0,1.E0,0.E0));
#255=VECTOR('',#254,6.223E-1);
#256=CARTESIAN_POINT('',(3.1115E-1,-3.1115E-1,-1.651E0));
#257=LINE('',#256,#255);
#258=DIRECTION('',(1.E0,0.E0,0.E0));
#259=VECTOR('',#258,6.223E-1);
#260=CARTESIAN_POINT('',(-3.1115E-1,-3.1115E-1,-1.651E0));
#261=LINE('',#260,#259);
#262=DIRECTION('',(0.E0,0.E0,1.E0));
#263=VECTOR('',#262,5.842E0);
#264=CARTESIAN_POINT('',(-3.1115E-1,3.1115E-1,0.E0));
#265=LINE('',#264,#263);
#266=DIRECTION('',(0.E0,-1.E0,0.E0));
#267=VECTOR('',#266,6.223E-1);
#268=CARTESIAN_POINT('',(-3.1115E-1,3.1115E-1,5.842E0));
#269=LINE('',#268,#267);
#270=DIRECTION('',(0.E0,0.E0,-1.E0));
#271=VECTOR('',#270,5.842E0);
#272=CARTESIAN_POINT('',(-3.1115E-1,-3.1115E-1,5.842E0));
#273=LINE('',#272,#271);
#274=DIRECTION('',(0.E0,0.E0,-1.E0));
#275=VECTOR('',#274,3.683E0);
#276=CARTESIAN_POINT('',(-3.1115E-1,-3.1115E-1,-1.651E0));
#277=LINE('',#276,#275);
#278=DIRECTION('',(0.E0,1.E0,0.E0));
#279=VECTOR('',#278,6.223E-1);
#280=CARTESIAN_POINT('',(-3.1115E-1,-3.1115E-1,-5.334E0));
#281=LINE('',#280,#279);
#282=DIRECTION('',(0.E0,0.E0,1.E0));
#283=VECTOR('',#282,3.683E0);
#284=CARTESIAN_POINT('',(-3.1115E-1,3.1115E-1,-5.334E0));
#285=LINE('',#284,#283);
#286=DIRECTION('',(0.E0,0.E0,-1.E0));
#287=VECTOR('',#286,5.842E0);
#288=CARTESIAN_POINT('',(3.1115E-1,-3.1115E-1,5.842E0));
#289=LINE('',#288,#287);
#290=DIRECTION('',(0.E0,-1.E0,0.E0));
#291=VECTOR('',#290,6.223E-1);
#292=CARTESIAN_POINT('',(3.1115E-1,3.1115E-1,5.842E0));
#293=LINE('',#292,#291);
#294=DIRECTION('',(0.E0,0.E0,1.E0));
#295=VECTOR('',#294,5.842E0);
#296=CARTESIAN_POINT('',(3.1115E-1,3.1115E-1,0.E0));
#297=LINE('',#296,#295);
#298=DIRECTION('',(0.E0,0.E0,-1.E0));
#299=VECTOR('',#298,3.683E0);
#300=CARTESIAN_POINT('',(3.1115E-1,-3.1115E-1,-1.651E0));
#301=LINE('',#300,#299);
#302=DIRECTION('',(0.E0,0.E0,1.E0));
#303=VECTOR('',#302,3.683E0);
#304=CARTESIAN_POINT('',(3.1115E-1,3.1115E-1,-5.334E0));
#305=LINE('',#304,#303);
#306=DIRECTION('',(0.E0,1.E0,0.E0));
#307=VECTOR('',#306,6.223E-1);
#308=CARTESIAN_POINT('',(3.1115E-1,-3.1115E-1,-5.334E0));
#309=LINE('',#308,#307);
#310=DIRECTION('',(1.E0,0.E0,0.E0));
#311=VECTOR('',#310,6.223E-1);
#312=CARTESIAN_POINT('',(-3.1115E-1,-3.1115E-1,5.842E0));
#313=LINE('',#312,#311);
#314=DIRECTION('',(1.E0,0.E0,0.E0));
#315=VECTOR('',#314,6.223E-1);
#316=CARTESIAN_POINT('',(-3.1115E-1,3.1115E-1,5.842E0));
#317=LINE('',#316,#315);
#318=DIRECTION('',(1.E0,0.E0,0.E0));
#319=VECTOR('',#318,6.223E-1);
#320=CARTESIAN_POINT('',(-3.1115E-1,-3.1115E-1,-5.334E0));
#321=LINE('',#320,#319);
#322=DIRECTION('',(1.E0,0.E0,0.E0));
#323=VECTOR('',#322,6.223E-1);
#324=CARTESIAN_POINT('',(-3.1115E-1,3.1115E-1,-5.334E0));
#325=LINE('',#324,#323);
#326=CARTESIAN_POINT('',(-1.0668E0,1.1684E0,0.E0));
#327=CARTESIAN_POINT('',(-1.0668E0,1.1684E0,-2.286E0));
#328=VERTEX_POINT('',#326);
#329=VERTEX_POINT('',#327);
#330=CARTESIAN_POINT('',(1.0668E0,1.1684E0,-2.286E0));
#331=CARTESIAN_POINT('',(1.0668E0,1.1684E0,0.E0));
#332=VERTEX_POINT('',#330);
#333=VERTEX_POINT('',#331);
#334=CARTESIAN_POINT('',(-1.0668E0,-1.1684E0,0.E0));
#335=CARTESIAN_POINT('',(-1.0668E0,-1.1684E0,-2.286E0));
#336=VERTEX_POINT('',#334);
#337=VERTEX_POINT('',#335);
#338=CARTESIAN_POINT('',(1.0668E0,-1.1684E0,-2.286E0));
#339=CARTESIAN_POINT('',(1.0668E0,-1.1684E0,0.E0));
#340=VERTEX_POINT('',#338);
#341=VERTEX_POINT('',#339);
#342=CARTESIAN_POINT('',(-3.1115E-1,3.1115E-1,5.842E0));
#343=CARTESIAN_POINT('',(-3.1115E-1,-3.1115E-1,5.842E0));
#344=VERTEX_POINT('',#342);
#345=VERTEX_POINT('',#343);
#346=CARTESIAN_POINT('',(-3.1115E-1,-3.1115E-1,-5.334E0));
#347=CARTESIAN_POINT('',(-3.1115E-1,3.1115E-1,-5.334E0));
#348=VERTEX_POINT('',#346);
#349=VERTEX_POINT('',#347);
#350=CARTESIAN_POINT('',(3.1115E-1,3.1115E-1,5.842E0));
#351=CARTESIAN_POINT('',(3.1115E-1,-3.1115E-1,5.842E0));
#352=VERTEX_POINT('',#350);
#353=VERTEX_POINT('',#351);
#354=CARTESIAN_POINT('',(3.1115E-1,-3.1115E-1,-5.334E0));
#355=CARTESIAN_POINT('',(3.1115E-1,3.1115E-1,-5.334E0));
#356=VERTEX_POINT('',#354);
#357=VERTEX_POINT('',#355);
#358=CARTESIAN_POINT('',(-3.1115E-1,-3.1115E-1,0.E0));
#359=CARTESIAN_POINT('',(-3.1115E-1,3.1115E-1,0.E0));
#360=VERTEX_POINT('',#358);
#361=VERTEX_POINT('',#359);
#362=CARTESIAN_POINT('',(3.1115E-1,-3.1115E-1,0.E0));
#363=CARTESIAN_POINT('',(3.1115E-1,3.1115E-1,0.E0));
#364=VERTEX_POINT('',#362);
#365=VERTEX_POINT('',#363);
#366=CARTESIAN_POINT('',(-3.1115E-1,-3.1115E-1,-1.651E0));
#367=VERTEX_POINT('',#366);
#368=CARTESIAN_POINT('',(-3.1115E-1,3.1115E-1,-1.651E0));
#369=VERTEX_POINT('',#368);
#370=CARTESIAN_POINT('',(3.1115E-1,-3.1115E-1,-1.651E0));
#371=VERTEX_POINT('',#370);
#372=CARTESIAN_POINT('',(3.1115E-1,3.1115E-1,-1.651E0));
#373=VERTEX_POINT('',#372);
#374=CARTESIAN_POINT('',(-5.08E-1,1.1684E0,-2.286E0));
#375=CARTESIAN_POINT('',(-5.08E-1,1.1684E0,-1.651E0));
#376=VERTEX_POINT('',#374);
#377=VERTEX_POINT('',#375);
#378=CARTESIAN_POINT('',(5.08E-1,1.1684E0,-1.651E0));
#379=VERTEX_POINT('',#378);
#380=CARTESIAN_POINT('',(5.08E-1,1.1684E0,-2.286E0));
#381=VERTEX_POINT('',#380);
#382=CARTESIAN_POINT('',(-5.08E-1,-1.1684E0,-2.286E0));
#383=CARTESIAN_POINT('',(-5.08E-1,-1.1684E0,-1.651E0));
#384=VERTEX_POINT('',#382);
#385=VERTEX_POINT('',#383);
#386=CARTESIAN_POINT('',(5.08E-1,-1.1684E0,-1.651E0));
#387=VERTEX_POINT('',#386);
#388=CARTESIAN_POINT('',(5.08E-1,-1.1684E0,-2.286E0));
#389=VERTEX_POINT('',#388);
#390=CARTESIAN_POINT('',(0.E0,1.1684E0,0.E0));
#391=DIRECTION('',(0.E0,-1.E0,0.E0));
#392=DIRECTION('',(1.E0,0.E0,0.E0));
#393=AXIS2_PLACEMENT_3D('',#390,#391,#392);
#394=PLANE('',#393);
#396=ORIENTED_EDGE('',*,*,#395,.T.);
#398=ORIENTED_EDGE('',*,*,#397,.T.);
#400=ORIENTED_EDGE('',*,*,#399,.F.);
#402=ORIENTED_EDGE('',*,*,#401,.T.);
#404=ORIENTED_EDGE('',*,*,#403,.T.);
#406=ORIENTED_EDGE('',*,*,#405,.T.);
#408=ORIENTED_EDGE('',*,*,#407,.T.);
#410=ORIENTED_EDGE('',*,*,#409,.T.);
#411=EDGE_LOOP('',(#396,#398,#400,#402,#404,#406,#408,#410));
#412=FACE_OUTER_BOUND('',#411,.F.);
#414=CARTESIAN_POINT('',(-5.08E-1,1.1684E0,-2.286E0));
#415=DIRECTION('',(-1.E0,0.E0,0.E0));
#416=DIRECTION('',(0.E0,0.E0,1.E0));
#417=AXIS2_PLACEMENT_3D('',#414,#415,#416);
#418=PLANE('',#417);
#419=ORIENTED_EDGE('',*,*,#395,.F.);
#421=ORIENTED_EDGE('',*,*,#420,.T.);
#423=ORIENTED_EDGE('',*,*,#422,.T.);
#425=ORIENTED_EDGE('',*,*,#424,.F.);
#426=EDGE_LOOP('',(#419,#421,#423,#425));
#427=FACE_OUTER_BOUND('',#426,.F.);
#429=CARTESIAN_POINT('',(-1.0668E0,1.1684E0,-2.286E0));
#430=DIRECTION('',(0.E0,0.E0,-1.E0));
#431=DIRECTION('',(1.E0,0.E0,0.E0));
#432=AXIS2_PLACEMENT_3D('',#429,#430,#431);
#433=PLANE('',#432);
#434=ORIENTED_EDGE('',*,*,#420,.F.);
#435=ORIENTED_EDGE('',*,*,#409,.F.);
#437=ORIENTED_EDGE('',*,*,#436,.T.);
#439=ORIENTED_EDGE('',*,*,#438,.T.);
#440=EDGE_LOOP('',(#434,#435,#437,#439));
#441=FACE_OUTER_BOUND('',#440,.F.);
#443=CARTESIAN_POINT('',(-1.0668E0,1.1684E0,-2.286E0));
#444=DIRECTION('',(0.E0,0.E0,-1.E0));
#445=DIRECTION('',(1.E0,0.E0,0.E0));
#446=AXIS2_PLACEMENT_3D('',#443,#444,#445);
#447=PLANE('',#446);
#449=ORIENTED_EDGE('',*,*,#448,.T.);
#451=ORIENTED_EDGE('',*,*,#450,.T.);
#453=ORIENTED_EDGE('',*,*,#452,.F.);
#454=ORIENTED_EDGE('',*,*,#401,.F.);
#455=EDGE_LOOP('',(#449,#451,#453,#454));
#456=FACE_OUTER_BOUND('',#455,.F.);
#458=CARTESIAN_POINT('',(-1.0668E0,1.1684E0,0.E0));
#459=DIRECTION('',(-1.E0,0.E0,0.E0));
#460=DIRECTION('',(0.E0,0.E0,-1.E0));
#461=AXIS2_PLACEMENT_3D('',#458,#459,#460);
#462=PLANE('',#461);
#463=ORIENTED_EDGE('',*,*,#407,.F.);
#465=ORIENTED_EDGE('',*,*,#464,.T.);
#467=ORIENTED_EDGE('',*,*,#466,.T.);
#468=ORIENTED_EDGE('',*,*,#436,.F.);
#469=EDGE_LOOP('',(#463,#465,#467,#468));
#470=FACE_OUTER_BOUND('',#469,.F.);
#472=CARTESIAN_POINT('',(1.0668E0,1.1684E0,0.E0));
#473=DIRECTION('',(0.E0,0.E0,1.E0));
#474=DIRECTION('',(-1.E0,0.E0,0.E0));
#475=AXIS2_PLACEMENT_3D('',#472,#473,#474);
#476=PLANE('',#475);
#477=ORIENTED_EDGE('',*,*,#405,.F.);
#479=ORIENTED_EDGE('',*,*,#478,.T.);
#481=ORIENTED_EDGE('',*,*,#480,.T.);
#482=ORIENTED_EDGE('',*,*,#464,.F.);
#483=EDGE_LOOP('',(#477,#479,#481,#482));
#484=FACE_OUTER_BOUND('',#483,.F.);
#486=ORIENTED_EDGE('',*,*,#485,.F.);
#488=ORIENTED_EDGE('',*,*,#487,.T.);
#490=ORIENTED_EDGE('',*,*,#489,.T.);
#492=ORIENTED_EDGE('',*,*,#491,.F.);
#493=EDGE_LOOP('',(#486,#488,#490,#492));
#494=FACE_BOUND('',#493,.F.);
#496=CARTESIAN_POINT('',(1.0668E0,1.1684E0,-2.286E0));
#497=DIRECTION('',(1.E0,0.E0,0.E0));
#498=DIRECTION('',(0.E0,0.E0,1.E0));
#499=AXIS2_PLACEMENT_3D('',#496,#497,#498);
#500=PLANE('',#499);
#501=ORIENTED_EDGE('',*,*,#403,.F.);
#502=ORIENTED_EDGE('',*,*,#452,.T.);
#504=ORIENTED_EDGE('',*,*,#503,.T.);
#505=ORIENTED_EDGE('',*,*,#478,.F.);
#506=EDGE_LOOP('',(#501,#502,#504,#505));
#507=FACE_OUTER_BOUND('',#506,.F.);
#509=CARTESIAN_POINT('',(0.E0,-1.1684E0,0.E0));
#510=DIRECTION('',(0.E0,-1.E0,0.E0));
#511=DIRECTION('',(1.E0,0.E0,0.E0));
#512=AXIS2_PLACEMENT_3D('',#509,#510,#511);
#513=PLANE('',#512);
#514=ORIENTED_EDGE('',*,*,#422,.F.);
#515=ORIENTED_EDGE('',*,*,#438,.F.);
#516=ORIENTED_EDGE('',*,*,#466,.F.);
#517=ORIENTED_EDGE('',*,*,#480,.F.);
#518=ORIENTED_EDGE('',*,*,#503,.F.);
#519=ORIENTED_EDGE('',*,*,#450,.F.);
#521=ORIENTED_EDGE('',*,*,#520,.T.);
#523=ORIENTED_EDGE('',*,*,#522,.F.);
#524=EDGE_LOOP('',(#514,#515,#516,#517,#518,#519,#521,#523));
#525=FACE_OUTER_BOUND('',#524,.F.);
#527=CARTESIAN_POINT('',(5.08E-1,1.1684E0,-1.651E0));
#528=DIRECTION('',(1.E0,0.E0,0.E0));
#529=DIRECTION('',(0.E0,0.E0,-1.E0));
#530=AXIS2_PLACEMENT_3D('',#527,#528,#529);
#531=PLANE('',#530);
#532=ORIENTED_EDGE('',*,*,#399,.T.);
#534=ORIENTED_EDGE('',*,*,#533,.T.);
#535=ORIENTED_EDGE('',*,*,#520,.F.);
#536=ORIENTED_EDGE('',*,*,#448,.F.);
#537=EDGE_LOOP('',(#532,#534,#535,#536));
#538=FACE_OUTER_BOUND('',#537,.F.);
#540=CARTESIAN_POINT('',(-5.08E-1,1.1684E0,-1.651E0));
#541=DIRECTION('',(0.E0,0.E0,1.E0));
#542=DIRECTION('',(1.E0,0.E0,0.E0));
#543=AXIS2_PLACEMENT_3D('',#540,#541,#542);
#544=PLANE('',#543);
#545=ORIENTED_EDGE('',*,*,#397,.F.);
#546=ORIENTED_EDGE('',*,*,#424,.T.);
#547=ORIENTED_EDGE('',*,*,#522,.T.);
#548=ORIENTED_EDGE('',*,*,#533,.F.);
#549=EDGE_LOOP('',(#545,#546,#547,#548));
#550=FACE_OUTER_BOUND('',#549,.F.);
#552=ORIENTED_EDGE('',*,*,#551,.T.);
#554=ORIENTED_EDGE('',*,*,#553,.T.);
#556=ORIENTED_EDGE('',*,*,#555,.F.);
#558=ORIENTED_EDGE('',*,*,#557,.F.);
#559=EDGE_LOOP('',(#552,#554,#556,#558));
#560=FACE_BOUND('',#559,.F.);
#562=CARTESIAN_POINT('',(-3.1115E-1,1.1684E0,0.E0));
#563=DIRECTION('',(1.E0,0.E0,0.E0));
#564=DIRECTION('',(0.E0,1.E0,0.E0));
#565=AXIS2_PLACEMENT_3D('',#562,#563,#564);
#566=PLANE('',#565);
#567=ORIENTED_EDGE('',*,*,#485,.T.);
#569=ORIENTED_EDGE('',*,*,#568,.T.);
#571=ORIENTED_EDGE('',*,*,#570,.T.);
#573=ORIENTED_EDGE('',*,*,#572,.T.);
#574=EDGE_LOOP('',(#567,#569,#571,#573));
#575=FACE_OUTER_BOUND('',#574,.F.);
#577=CARTESIAN_POINT('',(-3.1115E-1,1.1684E0,0.E0));
#578=DIRECTION('',(1.E0,0.E0,0.E0));
#579=DIRECTION('',(0.E0,1.E0,0.E0));
#580=AXIS2_PLACEMENT_3D('',#577,#578,#579);
#581=PLANE('',#580);
#583=ORIENTED_EDGE('',*,*,#582,.T.);
#585=ORIENTED_EDGE('',*,*,#584,.T.);
#587=ORIENTED_EDGE('',*,*,#586,.T.);
#588=ORIENTED_EDGE('',*,*,#551,.F.);
#589=EDGE_LOOP('',(#583,#585,#587,#588));
#590=FACE_OUTER_BOUND('',#589,.F.);
#592=CARTESIAN_POINT('',(-3.1115E-1,3.1115E-1,0.E0));
#593=DIRECTION('',(0.E0,1.E0,0.E0));
#594=DIRECTION('',(0.E0,0.E0,1.E0));
#595=AXIS2_PLACEMENT_3D('',#592,#593,#594);
#596=PLANE('',#595);
#597=ORIENTED_EDGE('',*,*,#491,.T.);
#599=ORIENTED_EDGE('',*,*,#598,.T.);
#601=ORIENTED_EDGE('',*,*,#600,.F.);
#602=ORIENTED_EDGE('',*,*,#568,.F.);
#603=EDGE_LOOP('',(#597,#599,#601,#602));
#604=FACE_OUTER_BOUND('',#603,.F.);
#606=CARTESIAN_POINT('',(3.1115E-1,1.1684E0,0.E0));
#607=DIRECTION('',(1.E0,0.E0,0.E0));
#608=DIRECTION('',(0.E0,1.E0,0.E0));
#609=AXIS2_PLACEMENT_3D('',#606,#607,#608);
#610=PLANE('',#609);
#611=ORIENTED_EDGE('',*,*,#489,.F.);
#613=ORIENTED_EDGE('',*,*,#612,.F.);
#615=ORIENTED_EDGE('',*,*,#614,.F.);
#616=ORIENTED_EDGE('',*,*,#598,.F.);
#617=EDGE_LOOP('',(#611,#613,#615,#616));
#618=FACE_OUTER_BOUND('',#617,.F.);
#620=CARTESIAN_POINT('',(3.1115E-1,1.1684E0,0.E0));
#621=DIRECTION('',(1.E0,0.E0,0.E0));
#622=DIRECTION('',(0.E0,1.E0,0.E0));
#623=AXIS2_PLACEMENT_3D('',#620,#621,#622);
#624=PLANE('',#623);
#626=ORIENTED_EDGE('',*,*,#625,.F.);
#627=ORIENTED_EDGE('',*,*,#555,.T.);
#629=ORIENTED_EDGE('',*,*,#628,.F.);
#631=ORIENTED_EDGE('',*,*,#630,.F.);
#632=EDGE_LOOP('',(#626,#627,#629,#631));
#633=FACE_OUTER_BOUND('',#632,.F.);
#635=CARTESIAN_POINT('',(-3.1115E-1,-3.1115E-1,5.842E0));
#636=DIRECTION('',(0.E0,-1.E0,0.E0));
#637=DIRECTION('',(0.E0,0.E0,-1.E0));
#638=AXIS2_PLACEMENT_3D('',#635,#636,#637);
#639=PLANE('',#638);
#640=ORIENTED_EDGE('',*,*,#487,.F.);
#641=ORIENTED_EDGE('',*,*,#572,.F.);
#643=ORIENTED_EDGE('',*,*,#642,.T.);
#644=ORIENTED_EDGE('',*,*,#612,.T.);
#645=EDGE_LOOP('',(#640,#641,#643,#644));
#646=FACE_OUTER_BOUND('',#645,.F.);
#648=CARTESIAN_POINT('',(-3.1115E-1,3.1115E-1,5.842E0));
#649=DIRECTION('',(0.E0,0.E0,1.E0));
#650=DIRECTION('',(0.E0,-1.E0,0.E0));
#651=AXIS2_PLACEMENT_3D('',#648,#649,#650);
#652=PLANE('',#651);
#653=ORIENTED_EDGE('',*,*,#570,.F.);
#654=ORIENTED_EDGE('',*,*,#600,.T.);
#655=ORIENTED_EDGE('',*,*,#614,.T.);
#656=ORIENTED_EDGE('',*,*,#642,.F.);
#657=EDGE_LOOP('',(#653,#654,#655,#656));
#658=FACE_OUTER_BOUND('',#657,.F.);
#660=CARTESIAN_POINT('',(-3.1115E-1,-3.1115E-1,-1.651E0));
#661=DIRECTION('',(0.E0,-1.E0,0.E0));
#662=DIRECTION('',(0.E0,0.E0,-1.E0));
#663=AXIS2_PLACEMENT_3D('',#660,#661,#662);
#664=PLANE('',#663);
#665=ORIENTED_EDGE('',*,*,#582,.F.);
#666=ORIENTED_EDGE('',*,*,#557,.T.);
#667=ORIENTED_EDGE('',*,*,#625,.T.);
#669=ORIENTED_EDGE('',*,*,#668,.F.);
#670=EDGE_LOOP('',(#665,#666,#667,#669));
#671=FACE_OUTER_BOUND('',#670,.F.);
#673=CARTESIAN_POINT('',(-3.1115E-1,-3.1115E-1,-5.334E0));
#674=DIRECTION('',(0.E0,0.E0,-1.E0));
#675=DIRECTION('',(0.E0,1.E0,0.E0));
#676=AXIS2_PLACEMENT_3D('',#673,#674,#675);
#677=PLANE('',#676);
#678=ORIENTED_EDGE('',*,*,#584,.F.);
#679=ORIENTED_EDGE('',*,*,#668,.T.);
#680=ORIENTED_EDGE('',*,*,#630,.T.);
#682=ORIENTED_EDGE('',*,*,#681,.F.);
#683=EDGE_LOOP('',(#678,#679,#680,#682));
#684=FACE_OUTER_BOUND('',#683,.F.);
#686=CARTESIAN_POINT('',(-3.1115E-1,3.1115E-1,-5.334E0));
#687=DIRECTION('',(0.E0,1.E0,0.E0));
#688=DIRECTION('',(0.E0,0.E0,1.E0));
#689=AXIS2_PLACEMENT_3D('',#686,#687,#688);
#690=PLANE('',#689);
#691=ORIENTED_EDGE('',*,*,#586,.F.);
#692=ORIENTED_EDGE('',*,*,#681,.T.);
#693=ORIENTED_EDGE('',*,*,#628,.T.);
#694=ORIENTED_EDGE('',*,*,#553,.F.);
#695=EDGE_LOOP('',(#691,#692,#693,#694));
#696=FACE_OUTER_BOUND('',#695,.F.);
#698=CLOSED_SHELL('',(#413,#428,#442,#457,#471,#495,#508,#526,#539,#561,#576,
#591,#605,#619,#634,#647,#659,#672,#685,#697));
#699=MANIFOLD_SOLID_BREP('',#698);
#702=PLANE_ANGLE_MEASURE_WITH_UNIT(PLANE_ANGLE_MEASURE(1.745329251994E-2),#701);
#703=(CONVERSION_BASED_UNIT('DEGREE',#702)NAMED_UNIT(*)PLANE_ANGLE_UNIT());
#705=UNCERTAINTY_MEASURE_WITH_UNIT(LENGTH_MEASURE(1.161486401759E-3),#700,
'distance_accuracy_value',
'Maximum model space distance between geometric entities at asserted connectivities');
#708=APPLICATION_CONTEXT('automotive_design');
#709=APPLICATION_PROTOCOL_DEFINITION('international standard',
'automotive_design',2001,#708);
#710=PRODUCT_DEFINITION_CONTEXT('part definition',#708,'design');
#711=PRODUCT_CONTEXT('',#708,'mechanical');
#712=PRODUCT('C-5-146282-1','C-5-146282-1','NOT SPECIFIED',(#711));
#713=PRODUCT_DEFINITION_FORMATION('1','LAST_VERSION',#712);
#721=DERIVED_UNIT_ELEMENT(#720,2.E0);
#722=DERIVED_UNIT((#721));
#723=MEASURE_REPRESENTATION_ITEM('surface area measure',AREA_MEASURE(
5.579730776E1),#722);
#728=DERIVED_UNIT_ELEMENT(#727,3.E0);
#729=DERIVED_UNIT((#728));
#730=MEASURE_REPRESENTATION_ITEM('volume measure',VOLUME_MEASURE(
1.357854655253E1),#729);
#734=CARTESIAN_POINT('centre point',(0.E0,0.E0,-6.210197521161E-1));
#739=DERIVED_UNIT_ELEMENT(#738,2.E0);
#740=DERIVED_UNIT((#739));
#741=MEASURE_REPRESENTATION_ITEM('surface area measure',AREA_MEASURE(
5.579730776E1),#740);
#746=DERIVED_UNIT_ELEMENT(#745,3.E0);
#747=DERIVED_UNIT((#746));
#748=MEASURE_REPRESENTATION_ITEM('volume measure',VOLUME_MEASURE(
1.357854655253E1),#747);
#752=CARTESIAN_POINT('centre point',(0.E0,0.E0,-6.210197521161E-1));
#757=PRODUCT_RELATED_PRODUCT_CATEGORY('part','',(#712));
#1=DRAUGHTING_PRE_DEFINED_COLOUR('black');
#2=COLOUR_RGB('',0.E0,0.E0,3.6E-1);
#3=COLOUR_RGB('',0.E0,0.E0,4.8E-1);
#4=DRAUGHTING_PRE_DEFINED_COLOUR('blue');
#5=COLOUR_RGB('',0.E0,5.8824E-2,4.58824E-1);
#6=COLOUR_RGB('',0.E0,1.80392E-1,4.78431E-1);
#7=COLOUR_RGB('',0.E0,3.6E-1,9.E-2);
#8=COLOUR_RGB('',0.E0,3.6E-1,2.7E-1);
#9=COLOUR_RGB('',0.E0,5.6E-1,6.4E-1);
#10=COLOUR_RGB('',0.E0,5.8E-1,8.E-1);
#11=COLOUR_RGB('',0.E0,7.1E-1,6.6E-1);
#12=COLOUR_RGB('',0.E0,7.13E-1,0.E0);
#13=COLOUR_RGB('',0.E0,9.5E-1,8.4E-1);
#14=DRAUGHTING_PRE_DEFINED_COLOUR('green');
#15=DRAUGHTING_PRE_DEFINED_COLOUR('cyan');
#16=COLOUR_RGB('',1.1765E-2,1.9608E-2,3.9216E-2);
#17=COLOUR_RGB('',4.E-2,0.E0,1.6E-1);
#18=COLOUR_RGB('',3.9216E-2,2.19608E-1,1.21569E-1);
#19=COLOUR_RGB('',3.9216E-2,3.60784E-1,2.E-1);
#20=COLOUR_RGB('',5.098E-2,7.0588E-2,1.01961E-1);
#21=COLOUR_RGB('',9.E-2,0.E0,1.2E-1);
#22=COLOUR_RGB('',9.0196E-2,1.60784E-1,1.09804E-1);
#23=COLOUR_RGB('',9.0196E-2,3.80392E-1,6.70588E-1);
#24=COLOUR_RGB('',1.E-1,0.E0,2.5E-1);
#25=COLOUR_RGB('',1.01961E-1,4.78431E-1,3.88235E-1);
#26=COLOUR_RGB('',1.09804E-1,1.4902E-1,9.0196E-2);
#27=COLOUR_RGB('',1.4902E-1,3.09804E-1,5.29412E-1);
#28=COLOUR_RGB('',1.4902E-1,4.E-1,1.60784E-1);
#29=COLOUR_RGB('',1.6E-1,3.2E-2,0.E0);
#30=COLOUR_RGB('',1.60784E-1,4.5098E-1,7.21569E-1);
#31=COLOUR_RGB('',1.6E-1,4.6E-1,6.5E-1);
#32=COLOUR_RGB('',1.6E-1,1.E0,1.6E-1);
#33=COLOUR_RGB('',2.E-1,3.2E-2,0.E0);
#34=COLOUR_RGB('',2.11765E-1,4.11765E-1,1.4902E-1);
#35=COLOUR_RGB('',2.39216E-1,2.39216E-1,2.31373E-1);
#36=COLOUR_RGB('',2.39216E-1,2.70588E-1,1.80392E-1);
#37=COLOUR_RGB('',2.5098E-1,2.90196E-1,3.29412E-1);
#38=COLOUR_RGB('',2.90196E-1,4.31373E-1,2.E-1);
#39=COLOUR_RGB('',3.1E-1,3.1E-1,5.6E-1);
#40=COLOUR_RGB('',3.09804E-1,6.58824E-1,2.E-1);
#41=COLOUR_RGB('',3.2E-1,1.5E-1,0.E0);
#42=COLOUR_RGB('',3.60784E-1,3.1373E-2,1.68627E-1);
#43=COLOUR_RGB('',3.68627E-1,2.E-1,1.21569E-1);
#44=COLOUR_RGB('',3.88235E-1,2.39216E-1,6.11765E-1);
#45=COLOUR_RGB('',4.E-1,4.E-1,4.E-1);
#46=COLOUR_RGB('',4.11765E-1,5.8824E-2,7.8431E-2);
#47=COLOUR_RGB('',4.11765E-1,3.29412E-1,2.19608E-1);
#48=COLOUR_RGB('',4.2E-1,4.2E-1,1.E0);
#49=COLOUR_RGB('',4.4E-1,8.5E-1,1.E0);
#50=COLOUR_RGB('',4.58824E-1,4.5098E-1,3.09804E-1);
#51=COLOUR_RGB('',4.70588E-1,5.09804E-1,5.4902E-1);
#52=COLOUR_RGB('',4.78431E-1,4.90196E-1,4.58824E-1);
#53=COLOUR_RGB('',4.90196E-1,3.60784E-1,2.19608E-1);
#54=COLOUR_RGB('',4.9E-1,4.9E-1,0.E0);
#55=COLOUR_RGB('',4.9E-1,1.E0,0.E0);
#56=COLOUR_RGB('',5.E-1,0.E0,0.E0);
#57=COLOUR_RGB('',5.E-1,0.E0,2.3E-1);
#58=COLOUR_RGB('',5.E-1,5.E-1,5.E-1);
#59=COLOUR_RGB('',5.21569E-1,2.19608E-1,1.68627E-1);
#60=COLOUR_RGB('',5.3E-1,0.E0,0.E0);
#61=COLOUR_RGB('',5.29412E-1,5.80392E-1,6.5098E-1);
#62=COLOUR_RGB('',5.4E-1,0.E0,4.4E-1);
#63=COLOUR_RGB('',5.5E-1,3.E-1,0.E0);
#64=COLOUR_RGB('',5.6E-1,1.E-1,5.E-2);
#65=COLOUR_RGB('',5.60784E-1,5.80392E-1,6.19608E-1);
#66=COLOUR_RGB('',5.68627E-1,5.8824E-2,4.E-1);
#67=COLOUR_RGB('',5.8E-1,2.2E-1,1.E-2);
#68=COLOUR_RGB('',5.88235E-1,1.21569E-1,1.09804E-1);
#69=COLOUR_RGB('',6.E-1,6.E-1,6.E-1);
#70=COLOUR_RGB('',6.11765E-1,5.60784E-1,3.80392E-1);
#71=COLOUR_RGB('',6.11765E-1,6.11765E-1,6.5098E-1);
#72=COLOUR_RGB('',6.2E-1,0.E0,5.5E-1);
#73=COLOUR_RGB('',6.19608E-1,6.39216E-1,6.90196E-1);
#74=COLOUR_RGB('',6.4E-1,0.E0,2.5E-1);
#75=COLOUR_RGB('',6.4E-1,1.E-2,0.E0);
#76=COLOUR_RGB('',6.39216E-1,5.4902E-1,4.78431E-1);
#77=COLOUR_RGB('',6.5098E-1,6.70588E-1,7.09804E-1);
#78=COLOUR_RGB('',6.70588E-1,1.21569E-1,1.09804E-1);
#79=COLOUR_RGB('',6.78431E-1,4.78431E-1,3.09804E-1);
#80=COLOUR_RGB('',6.8E-1,7.5E-1,1.E0);
#81=COLOUR_RGB('',6.952E-1,7.426E-1,7.9E-1);
#82=COLOUR_RGB('',7.09804E-1,7.0588E-2,2.E-1);
#83=COLOUR_RGB('',7.1E-1,3.1E-1,0.E0);
#84=COLOUR_RGB('',7.2E-1,7.2E-1,7.2E-1);
#85=COLOUR_RGB('',7.29412E-1,7.41176E-1,7.29412E-1);
#86=COLOUR_RGB('',7.41176E-1,7.29412E-1,6.70588E-1);
#87=COLOUR_RGB('',7.4E-1,1.E0,2.6E-1);
#88=COLOUR_RGB('',7.5E-1,3.E-2,0.E0);
#89=COLOUR_RGB('',7.4902E-1,8.90196E-1,7.29412E-1);
#90=COLOUR_RGB('',7.6E-1,0.E0,4.7E-1);
#91=COLOUR_RGB('',7.80392E-1,9.0196E-2,7.0588E-2);
#92=COLOUR_RGB('',7.88235E-1,2.19608E-1,5.4902E-1);
#93=COLOUR_RGB('',8.1E-1,4.E-2,0.E0);
#94=COLOUR_RGB('',8.1E-1,6.1E-1,0.E0);
#95=COLOUR_RGB('',8.2E-1,4.E-2,6.6E-1);
#96=COLOUR_RGB('',8.31373E-1,8.5098E-1,8.58824E-1);
#97=COLOUR_RGB('',8.5098E-1,7.29412E-1,5.4902E-1);
#98=COLOUR_RGB('',8.5E-1,8.5E-1,8.5E-1);
#99=COLOUR_RGB('',8.78431E-1,3.68627E-1,1.21569E-1);
#100=COLOUR_RGB('',8.784E-1,9.49E-1,1.E0);
#101=COLOUR_RGB('',8.90196E-1,5.88235E-1,1.41176E-1);
#102=COLOUR_RGB('',9.E-1,1.E0,0.E0);
#103=COLOUR_RGB('',9.09804E-1,6.11765E-1,7.09804E-1);
#104=COLOUR_RGB('',9.37E-1,7.85E-1,0.E0);
#105=COLOUR_RGB('',9.41176E-1,9.29412E-1,9.01961E-1);
#106=COLOUR_RGB('',9.5E-1,2.2E-1,8.1E-1);
#107=COLOUR_RGB('',9.6E-1,3.7E-1,3.E-1);
#108=COLOUR_RGB('',9.6E-1,7.1E-1,3.75E-1);
#109=COLOUR_RGB('',9.80392E-1,1.E0,1.E0);
#110=COLOUR_RGB('',9.88235E-1,1.09804E-1,7.8431E-2);
#111=COLOUR_RGB('',9.88235E-1,7.21569E-1,1.29412E-1);
#112=COLOUR_RGB('',9.88235E-1,9.21569E-1,8.E-1);
#113=DRAUGHTING_PRE_DEFINED_COLOUR('red');
#114=COLOUR_RGB('',1.E0,0.E0,6.1E-1);
#115=COLOUR_RGB('',1.E0,4.E-2,0.E0);
#116=COLOUR_RGB('',1.E0,2.3E-1,0.E0);
#117=COLOUR_RGB('',1.E0,3.5E-1,5.2E-1);
#118=COLOUR_RGB('',1.E0,3.6E-1,0.E0);
#119=COLOUR_RGB('',1.E0,3.88235E-1,2.11765E-1);
#120=COLOUR_RGB('',1.E0,4.9E-1,3.7E-1);
#121=COLOUR_RGB('',1.E0,5.E-1,0.E0);
#122=COLOUR_RGB('',1.E0,5.6E-1,7.8E-1);
#123=COLOUR_RGB('',1.E0,6.4E-1,4.9E-1);
#124=COLOUR_RGB('',1.E0,6.7E-1,0.E0);
#125=COLOUR_RGB('',1.E0,7.6E-1,6.5E-1);
#126=COLOUR_RGB('',1.E0,8.39216E-1,3.01961E-1);
#127=COLOUR_RGB('',1.E0,8.6E-1,4.E-2);
#128=COLOUR_RGB('',1.E0,9.60784E-1,2.58824E-1);
#129=COLOUR_RGB('',1.E0,9.60784E-1,8.90196E-1);
#130=COLOUR_RGB('',1.E0,9.8E-1,7.2E-1);
#131=DRAUGHTING_PRE_DEFINED_COLOUR('yellow');
#132=COLOUR_RGB('',1.E0,1.E0,3.9216E-2);
#133=DRAUGHTING_PRE_DEFINED_COLOUR('white');
#395=EDGE_CURVE('',#376,#377,#137,.T.);
#397=EDGE_CURVE('',#377,#379,#141,.T.);
#399=EDGE_CURVE('',#381,#379,#145,.T.);
#401=EDGE_CURVE('',#381,#332,#149,.T.);
#403=EDGE_CURVE('',#332,#333,#153,.T.);
#405=EDGE_CURVE('',#333,#328,#157,.T.);
#407=EDGE_CURVE('',#328,#329,#161,.T.);
#409=EDGE_CURVE('',#329,#376,#165,.T.);
#413=ADVANCED_FACE('',(#412),#394,.F.);
#420=EDGE_CURVE('',#376,#384,#169,.T.);
#422=EDGE_CURVE('',#384,#385,#209,.T.);
#424=EDGE_CURVE('',#377,#385,#245,.T.);
#428=ADVANCED_FACE('',(#427),#418,.F.);
#436=EDGE_CURVE('',#329,#337,#173,.T.);
#438=EDGE_CURVE('',#337,#384,#213,.T.);
#442=ADVANCED_FACE('',(#441),#433,.T.);
#448=EDGE_CURVE('',#381,#389,#177,.T.);
#450=EDGE_CURVE('',#389,#340,#229,.T.);
#452=EDGE_CURVE('',#332,#340,#205,.T.);
#457=ADVANCED_FACE('',(#456),#447,.T.);
#464=EDGE_CURVE('',#328,#336,#181,.T.);
#466=EDGE_CURVE('',#336,#337,#217,.T.);
#471=ADVANCED_FACE('',(#470),#462,.T.);
#478=EDGE_CURVE('',#333,#341,#185,.T.);
#480=EDGE_CURVE('',#341,#336,#221,.T.);
#485=EDGE_CURVE('',#360,#361,#189,.T.);
#487=EDGE_CURVE('',#360,#364,#193,.T.);
#489=EDGE_CURVE('',#364,#365,#197,.T.);
#491=EDGE_CURVE('',#361,#365,#201,.T.);
#495=ADVANCED_FACE('',(#484,#494),#476,.T.);
#503=EDGE_CURVE('',#340,#341,#225,.T.);
#508=ADVANCED_FACE('',(#507),#500,.T.);
#520=EDGE_CURVE('',#389,#387,#233,.T.);
#522=EDGE_CURVE('',#385,#387,#237,.T.);
#526=ADVANCED_FACE('',(#525),#513,.T.);
#533=EDGE_CURVE('',#379,#387,#241,.T.);
#539=ADVANCED_FACE('',(#538),#531,.F.);
#551=EDGE_CURVE('',#367,#369,#249,.T.);
#553=EDGE_CURVE('',#369,#373,#253,.T.);
#555=EDGE_CURVE('',#371,#373,#257,.T.);
#557=EDGE_CURVE('',#367,#371,#261,.T.);
#561=ADVANCED_FACE('',(#550,#560),#544,.F.);
#568=EDGE_CURVE('',#361,#344,#265,.T.);
#570=EDGE_CURVE('',#344,#345,#269,.T.);
#572=EDGE_CURVE('',#345,#360,#273,.T.);
#576=ADVANCED_FACE('',(#575),#566,.F.);
#582=EDGE_CURVE('',#367,#348,#277,.T.);
#584=EDGE_CURVE('',#348,#349,#281,.T.);
#586=EDGE_CURVE('',#349,#369,#285,.T.);
#591=ADVANCED_FACE('',(#590),#581,.F.);
#598=EDGE_CURVE('',#365,#352,#297,.T.);
#600=EDGE_CURVE('',#344,#352,#317,.T.);
#605=ADVANCED_FACE('',(#604),#596,.T.);
#612=EDGE_CURVE('',#353,#364,#289,.T.);
#614=EDGE_CURVE('',#352,#353,#293,.T.);
#619=ADVANCED_FACE('',(#618),#610,.T.);
#625=EDGE_CURVE('',#371,#356,#301,.T.);
#628=EDGE_CURVE('',#357,#373,#305,.T.);
#630=EDGE_CURVE('',#356,#357,#309,.T.);
#634=ADVANCED_FACE('',(#633),#624,.T.);
#642=EDGE_CURVE('',#345,#353,#313,.T.);
#647=ADVANCED_FACE('',(#646),#639,.T.);
#659=ADVANCED_FACE('',(#658),#652,.T.);
#668=EDGE_CURVE('',#348,#356,#321,.T.);
#672=ADVANCED_FACE('',(#671),#664,.T.);
#681=EDGE_CURVE('',#349,#357,#325,.T.);
#685=ADVANCED_FACE('',(#684),#677,.T.);
#697=ADVANCED_FACE('',(#696),#690,.T.);
#700=(LENGTH_UNIT()NAMED_UNIT(*)SI_UNIT(.MILLI.,.METRE.));
#701=(NAMED_UNIT(*)PLANE_ANGLE_UNIT()SI_UNIT($,.RADIAN.));
#704=(NAMED_UNIT(*)SI_UNIT($,.STERADIAN.)SOLID_ANGLE_UNIT());
#706=(GEOMETRIC_REPRESENTATION_CONTEXT(3)GLOBAL_UNCERTAINTY_ASSIGNED_CONTEXT((
#705))GLOBAL_UNIT_ASSIGNED_CONTEXT((#700,#703,#704))REPRESENTATION_CONTEXT
('ID1','3'));
#707=ADVANCED_BREP_SHAPE_REPRESENTATION('',(#699),#706);
#714=PRODUCT_DEFINITION('part definition','',#713,#710);
#715=PRODUCT_DEFINITION_SHAPE('','SHAPE FOR C-5-146282-1.',#714);
#716=SHAPE_ASPECT('','solid data associated with C-5-146282-1',#715,.F.);
#717=PROPERTY_DEFINITION('',
'shape for solid data with which properties are associated',#716);
#718=SHAPE_REPRESENTATION('',(#699),#706);
#719=SHAPE_DEFINITION_REPRESENTATION(#717,#718);
#720=(LENGTH_UNIT()NAMED_UNIT(*)SI_UNIT(.MILLI.,.METRE.));
#724=PROPERTY_DEFINITION('geometric validation property','area of C-5-146282-1',
#716);
#725=REPRESENTATION('surface area',(#723),#706);
#726=PROPERTY_DEFINITION_REPRESENTATION(#724,#725);
#727=(LENGTH_UNIT()NAMED_UNIT(*)SI_UNIT(.MILLI.,.METRE.));
#731=PROPERTY_DEFINITION('geometric validation property',
'volume of C-5-146282-1',#716);
#732=REPRESENTATION('volume',(#730),#706);
#733=PROPERTY_DEFINITION_REPRESENTATION(#731,#732);
#735=PROPERTY_DEFINITION('geometric validation property',
'centroid of C-5-146282-1',#716);
#736=REPRESENTATION('centroid',(#734),#706);
#737=PROPERTY_DEFINITION_REPRESENTATION(#735,#736);
#738=(LENGTH_UNIT()NAMED_UNIT(*)SI_UNIT(.MILLI.,.METRE.));
#742=PROPERTY_DEFINITION('geometric validation property','area of C-5-146282-1',
#715);
#743=REPRESENTATION('surface area',(#741),#706);
#744=PROPERTY_DEFINITION_REPRESENTATION(#742,#743);
#745=(LENGTH_UNIT()NAMED_UNIT(*)SI_UNIT(.MILLI.,.METRE.));
#749=PROPERTY_DEFINITION('geometric validation property',
'volume of C-5-146282-1',#715);
#750=REPRESENTATION('volume',(#748),#706);
#751=PROPERTY_DEFINITION_REPRESENTATION(#749,#750);
#753=PROPERTY_DEFINITION('geometric validation property',
'centroid of C-5-146282-1',#715);
#754=REPRESENTATION('centroid',(#752),#706);
#755=PROPERTY_DEFINITION_REPRESENTATION(#753,#754);
#756=SHAPE_DEFINITION_REPRESENTATION(#715,#707);
ENDSEC;
END-ISO-10303-21;
